<?xml version="1.0" encoding="UTF-8"?>
<svg id="Layer_1" data-name="Layer 1" xmlns="http://www.w3.org/2000/svg" viewBox="0 0 100 100">
  <defs>
    <style>
      .cls-1 {
        fill: #fff;
      }

      .cls-2 {
        fill: #f5b83f;
      }

      .cls-3 {
        fill: #292929;
      }
    </style>
  </defs>
  <rect class="cls-3" width="100" height="100"/>
  <g>
    <path class="cls-1" d="m36.39,81.67c-.16-.68-.07-1.4,0-2.09-.1-.1-2.28.13-2.68.08-.14-.02-.13.03-.12-.16l3.6-.31c1.1.04,2.21-.08,3.3.08l-.58.15c-.42.04-3.26.03-3.37.16-.04.22.07.43.07.65,0,.24-.08,1.31-.05,1.36.13.19.5-.05.7,0l.74.08-3.41.31-.12,1.32c-.11,0-.14-1.11-.12-1.24-.32-.1-2.32,0-2.41-.08-.01-.01-.02-.31,0-.31h4.42Z"/>
    <path class="cls-1" d="m40.23,72.82c.06,0,.25.12.19.15-.1-.03-.22.08-.27.08h-1.59c.1.67.13,1.36,0,2.02h1.63c.01.19.02.13-.12.15-1.2.18-2.47.15-3.69.16.11.37.2.82.23,1.2,0,.09.06.36-.08.35-.03-.33-.52-1.48-.36-1.71.13-.18,1.91-.11,2.22-.19-.14-.62-.09-1.27,0-1.9-.07-.07-1.73-.04-1.98-.08-.09-.02-.18-.05-.2-.15.12.05.29-.08.35-.08,1.02,0,2.72-.14,3.65,0Z"/>
    <path class="cls-1" d="m38.1,60.95c.86-.01,1.71-.01,2.56.08l-.73.16c-2.75.09-5.51.08-8.27.07.01-.11.34-.13.44-.14.73-.1,1.66-.14,2.39-.17,1.15-.04,2.31.04,3.46,0-.25-.64-.35-1.34-.23-2.02.17.06.17.3.21.45.12.5.12,1.06.18,1.57Z"/>
    <path class="cls-1" d="m31.42,66.22h1.51s.16.15.18.21c.12.38-.15,1.44-.14,1.88l-.15-.58v-1.2l-3.8-.08.11-.15,2.21-.08c-.28-.68-.32-1.44-.31-2.17l-2.02-.08c-.02-.2-.01-.13.12-.15.4-.07,1.86-.18,2.13.03.15.12.04,1.99.15,2.37Z"/>
    <path class="cls-1" d="m35.85,75.23c0,.11-.28.12-.37.13-.82.13-1.67.16-2.5.18.11.51.12,1.04,0,1.55-.4-.36-.22-1.08-.15-1.55-.33.06-3.73-.14-3.72-.35l6.75.04Z"/>
    <path class="cls-1" d="m40.58,63.82v.15c-.19-.08-.48.08-.58.08h-1.44c0,.2.04,1.27-.12,1.32-.15.05-.14-.13-.15-.23-.08-.43-.02-.69.12-1.09h-2.44s-.23-.08-.19-.15c1.13-.09,2.28-.15,3.41-.16-.22-.6-.37-1.15-.23-1.78.41.46.21,1.35.5,1.86h1.13Z"/>
    <path class="cls-1" d="m36.39,58.62c0,.13-.26.15-.35.15-1.15.09-2.35.14-3.49.16-1.2.02-2.42.03-3.61-.12,0-.04.42-.11.51-.12,1.32-.1,2.72-.15,4.03-.16.98,0,1.94.06,2.91.08Z"/>
    <path class="cls-1" d="m40.35,70.49c.01.12-.21.11-.29.13-1.2.23-2.43.17-3.62.17-1,0-2,.05-2.99-.07l.58-.16,6.33-.07Z"/>
    <path class="cls-1" d="m41.67,43.88s-.05.22.04.24c.18.03.42-.08.62-.08.83-.03,1.66.03,2.49,0l.66.16c-1.26.26-2.53.12-3.8.08.14.49.07,1.02,0,1.51-.02.11-.03.24-.15.12-.1-.1-.1-1.29-.08-1.51,0-.07.08-.7.23-.51Z"/>
    <path class="cls-1" d="m35.92,73.29l-4.04-.12c0-.18,1.33-.1,1.52-.11s.35-.08.54-.08c.43-.01,1.85-.08,2.16.01.1.03.09.06.09.15,0,.52-.19,1.09-.12,1.63-.08.03-.15-.26-.15-.27v-1.2Z"/>
    <path class="cls-1" d="m39.65,77.32c.1.49-.25.27-.62.31l.15,1.16c-.24-.08-.35-1.12-.39-1.16-.92,0-1.84-.02-2.76-.08-.13,0-.26,0-.34-.12l3.96-.12Z"/>
    <path class="cls-1" d="m32.32,77.63s-.22-.08-.19-.15c.66-.1,1.32-.06,1.98-.08.22,0,.98-.2,1.11,0,.05.08-.11,1.44-.15,1.66-.02.13.05.13-.15.12v-1.55c-.81-.08-1.82.11-2.6,0Z"/>
    <path class="cls-1" d="m31.54,72.97c.1.03.12.18.12.27.04.42-.18,1.14-.16,1.59-.08.03-.15-.26-.15-.27v-1.28l-2.33-.08c-.07-.27.33-.13.51-.15.09-.01.21-.08.23-.08.36,0,1.55-.07,1.78,0Z"/>
    <path class="cls-1" d="m35.77,56.84v1.55c-.3-.28-.22-.86-.23-1.24h-1.67c-.17,0-.56-.16-.81-.08-.12-.1,0-.14.12-.15.13-.02.48-.08.54-.08h2.06Z"/>
    <path class="cls-1" d="m29.45,77.71s-.22-.08-.19-.15c.17.01.34-.06.51-.08.29-.02,1.64-.13,1.79,0,.26.21.04,1.64-.09,1.64l-.12-1.4c-.59-.06-1.33.08-1.9,0Z"/>
    <path class="cls-1" d="m37.86,46.05c-.16-.03-.13-.16-.15-.27-.16-.63-.09-1.45.12-2.06.18,0,.13,2.08.04,2.33Z"/>
    <path class="cls-1" d="m36.47,52.8c-.15-.03-.14-.16-.15-.27-.1-.65-.12-1.34,0-1.98.15.03.13.16.16.27.16.58.08,1.39,0,1.98Z"/>
    <path class="cls-1" d="m63.94,81.67l4.35.04c-.01.07.02.25,0,.27-.08.09-2.1,0-2.41.08-.02.32.03.65,0,.96,0,.08-.03.29-.15.28,0-.44.04-.89-.09-1.31-1.11-.03-2.23-.11-3.33-.32.05-.14.46-.09.59-.08.28.01.53.1.81.08-.11-.69-.14-1.42.08-2.09l-4.03-.23.73-.16c2.07-.04,4.12.08,6.17.31.01.18.03.14-.12.15-.4.05-2.58-.17-2.68-.08-.05.11.08.23.08.27v1.82Z"/>
    <path class="cls-1" d="m63.59,72.82c.1.01.27.14.43.08-.01.11-.11.14-.2.15-.26.04-1.9.01-1.97.08.1.62.15,1.33,0,1.94h1.51s.58.08.61.09c.28.09,0,.89-.05,1.09-.06.23-.14.47-.25.68-.03-.51.07-1.06.19-1.55-1.27.03-2.54-.03-3.8-.16,0-.05.1-.15.12-.15h1.51c-.04-.38-.09-.74-.08-1.13,0-.32.28-.89-.19-.89h-1.32s-.27-.09-.27-.12c.04-.04.26-.12.27-.12,1.07,0,2.47-.11,3.49,0Z"/>
    <path class="cls-1" d="m62.31,60.95c1.12.03,2.26-.04,3.38,0,.76.02,1.72.06,2.47.17.1.01.42.03.44.14l-9-.16.89-.15h1.66c.1-.49.08-1.02.18-1.49.03-.15.04-.39.21-.45.19.64,0,1.35-.23,1.94Z"/>
    <path class="cls-1" d="m68.82,66.22c.16-.16,0-1.85.08-2.21.05-.26.58-.26.81-.27.51-.03,1.01.05,1.52.08.01.18.03.14-.11.16-.29.04-1.79.04-1.87.15-.03.7-.07,1.38-.27,2.06,0,.1,1.88.09,2.06.11.12.01.24.02.27.16l-3.88.08v1.51s-.07.3-.15.27c.04-.4-.25-1.66-.12-1.94.02-.04.14-.16.15-.16h1.51Z"/>
    <path class="cls-1" d="m71.23,75.15c.02.11-.14.11-.22.13-1.09.27-2.46.21-3.59.26.1.24.12,1.42,0,1.55s-.13-.03-.16-.11c-.14-.45-.08-1,.08-1.44-.27.03-2.95-.12-2.95-.27l6.83-.12Z"/>
    <path class="cls-1" d="m63.47,71.07s.11-.11.08-.19c-1.13-.14-2.3-.02-3.41-.27-.09-.02-.25,0-.23-.12l6.47.09.44.14c-1.05.14-2.12.03-3.18.16-.04.03.08.1.08.12v1.47s-.08.19-.12.19c-.04-.01-.12-.18-.12-.19,0-.43-.05-.99,0-1.4Z"/>
    <path class="cls-1" d="m60.25,64.05c-.16-.01-.4-.12-.58-.12.22-.27,1.06.02,1.21-.19.1-.14.18-1.22.26-1.52.03-.11.01-.24.16-.27.19.63,0,1.21-.23,1.78,1.14.04,2.28.06,3.41.16.03.08-.18.15-.19.15h-2.44c.16.41.27.91.04,1.32l-.19-.66.08-.66c-.49-.03-1.03.04-1.51,0Z"/>
    <path class="cls-1" d="m71.31,58.78l-.97.16c-1.11.06-2.23-.05-3.34-.08-.27,0-3.15.02-3.15-.19,2.47-.16,4.98-.08,7.45.12Z"/>
    <path class="cls-1" d="m68.36,73.13l-.73.16h-3.3c.14.35.06.89-.02,1.26-.02.08-.03.23-.13.21l-.08-1.78,4.27.16Z"/>
    <path class="cls-1" d="m58.58,44.19c-1.12.2-2.32.22-3.46.08-.12-.01-.24-.02-.27-.16.98-.1,2-.11,2.99-.08.4,0,.64.25.89-.15.14.68.18,1.34,0,2.02-.03.02-.15-.1-.15-.12v-1.59Z"/>
    <path class="cls-1" d="m64.56,77.4l-.11.15-2.86.09c-.12.04-.39.96-.36,1.15-.4-.14.14-1.02,0-1.16-.37-.04-.72.18-.62-.31l3.96.08Z"/>
    <path class="cls-1" d="m70.49,72.97s.13.07.23.08c.18.02.57-.12.51.15l-2.33.08c.07.52.12,1.06-.12,1.55l-.19-1.59c0-.08.16-.27.19-.27.55,0,1.17-.04,1.71,0Z"/>
    <path class="cls-1" d="m65.33,79.18c-.16-.03-.13-.16-.15-.27-.03-.17-.17-1.32-.15-1.38.1-.31.52-.13.73-.13.79,0,1.58-.04,2.37.07,0,.05-.1.15-.12.15h-2.68v1.55Z"/>
    <path class="cls-1" d="m66.46,56.84c.19.01.51.12.74.12l-.74.19h-1.75l-.08,1.24s-.15-.1-.15-.12v-1.44c.65.03,1.33-.04,1.98,0Z"/>
    <path class="cls-1" d="m68.9,78.99s-.13.14-.15.12c-.06-.33-.33-1.44-.03-1.64s1.84.08,2.28.08c.03.08-.18.15-.19.15h-1.9c-.06.36.08.96,0,1.28Z"/>
    <path class="cls-1" d="m62.54,43.8c.03.64.2,1.43,0,2.06-.03.11.05.14-.16.11-.09-.11-.1-1.51-.08-1.75,0-.06.09-.63.23-.43Z"/>
    <path class="cls-1" d="m64.01,52.3c-.09.82-.28.36-.31-.15s.03-1.08.16-1.59c.08-.03.15.18.15.19,0,.48.05,1.09,0,1.55Z"/>
    <path class="cls-1" d="m15.17,77.09s-.3-.07-.27-.15c1.16-.14,2.33-.06,3.49-.08-.16-.79-.05-1.56.15-2.33-.19,0-.38.01-.57-.01-.09,0-.43-.03-.44-.14,1.28-.17,2.61-.26,3.88-.04l-.81.19h-1.9c.02.72-.13,1.45-.12,2.17,0,.06.03.16.08.16h1.86l.5.15-.7.08c-.05.11.08.23.08.27v1.59c-.21.03-.14-.03-.18-.17-.17-.57-.14-1.12-.06-1.69l-3.18.08c.15.64.23,1.3,0,1.94.33.06,2.17.02,2.17.35v1.36l-.24-1.31c-2.19-.23-4.4.03-6.59.15.28,1.6-.51,1.78-.16,0h-2.68s-.3-.07-.27-.15l7.68-.39c-.12-.64-.12-1.38,0-2.02-.56-.05-1.2.06-1.75,0Z"/>
    <path class="cls-1" d="m28.32,74.37c-.03.15-.16.14-.27.15-1.38.22-2.62-.02-3.95-.08-.86-.04-1.74.07-2.6-.04l1.36-2.36c.15,0,1.11,2.05,1.41,2.23,1.35.04,2.71-.03,4.06.09Z"/>
    <path class="cls-1" d="m21.8,81.35h6.44c.01.11-.2.14-.28.15-.34.04-.81.07-1.16.08-1.25.06-2.51.03-3.76.08.18.18.24,1.39.04,1.39-.16,0-.29-1.23-.12-1.4h-2.99c-.07,0-.28-.14-.43-.08v-.08c.19.08.48-.08.58-.08h1.47s.09-.08.1-.11l-.14-2.06c-.52.07-1.06.12-1.59.08-.12,0-.46-.02-.5-.16.36.01,2.17-.32,2.33-.2s.06,2.04,0,2.37Z"/>
    <path class="cls-1" d="m11.48,83.68c.12.52.3,1.1.15,1.63-.4-.16-.25-1.57-.31-1.63-.66,0-1.33-.04-1.98.08l-1.13-.16c2.76-.21,5.53-.28,8.3-.16-.12.54-.06,1.12-.16,1.66-.02.08-.03.29-.15.28v-1.59s.1-.06.08-.12h-4.81Z"/>
    <path class="cls-1" d="m15.05,83.29c-.19.01-.13.02-.15-.12-.07-.47-.09-.96-.08-1.44h-3.34c-.02-.1.14-.13.21-.14,1.83-.27,4.01-.15,5.88-.17.49,0,.98-.14,1.51,0,.02.65,0,1.29-.08,1.94-.08.03-.15-.26-.15-.27v-1.44l-3.8-.08v1.71Z"/>
    <path class="cls-1" d="m21.1,76.78c-.12-.09,0-.14.11-.16.65-.08,1.36-.12,2.02-.16,1.34-.07,3.03-.15,4.35-.08.2.01.38.05.58.08l-.59.14c-1.54.06-3.07.19-4.61.16-.11.11.32,1.45-.08,1.63-.17-.51-.29-1.13,0-1.63h-1.78Z"/>
    <path class="cls-1" d="m25.68,71.35h2.48c.01.12-.2.14-.28.15-.36.05-.76.06-1.12.08.07.85.3,1.73.04,2.56-.09-.08-.19-.5-.19-.58v-1.98c-.94.11-1.89.07-2.84.07-.19,0-.36.09-.54.09-.36,0-.81-.16-1.2-.08,0-.12.27-.13.36-.15.97-.13,2-.11,2.98-.16v-.39c.21-.02.29.22.31.39Z"/>
    <path class="cls-1" d="m25.06,79.1c-.99.14-1.96.04-2.95,0,0-.12.27-.13.36-.15,1.45-.19,3.73-.26,5.19-.17.09,0,.58.07.58.12-.97.18-1.97.2-2.95.19.07.43.14.98.06,1.42-.03.14-.04.26-.21.21.08-.17-.08-.42-.08-.5v-1.13Z"/>
    <path class="cls-1" d="m24.28,83.45l-.58.15-3.53.08c0,.24.27,1.35.15,1.47-.35.36-.43-1.26-.47-1.39l-1.55-.08c-.01-.11.2-.14.28-.15.33-.04.69.04,1-.01,1.11-.17,2.26-.2,3.42-.15.41.02.85.15,1.28.08Z"/>
    <path class="cls-1" d="m24.83,85.2s-.07.3-.15.27l-.23-2.4,4.04.12c.05.18-.17.11-.27.12-1.15.04-2.3.12-3.45.08-.03.08.08.17.08.19,0,.5.05,1.15,0,1.63Z"/>
    <path class="cls-1" d="m14.51,78.87c-.16-.03-.13-.16-.15-.27-.1-.5-.11-1.08-.16-1.59-1.24.04-2.5.2-3.73-.04,0-.18,2.59-.19,2.84-.19.58-.01,1.2-.39,1.2.5v1.59Z"/>
    <path class="cls-1" d="m11.4,81.59v1.63c-.12,0-.13-.27-.14-.36-.05-.32-.08-.71-.09-1.04h-4.73c.04-.12.39-.14.51-.15.66-.09,1.58-.15,2.25-.16.75-.02,1.47.07,2.21.08Z"/>
    <path class="cls-1" d="m21.41,73.17c-.01.17-.15.43-.08.66h-.15s0-1.94,0-1.94c-1.04-.07-2.18-.02-3.2-.17-.07-.01-.23-.03-.21-.14h3.53s.12.11.12.12c0,.47.04,1.01,0,1.47Z"/>
    <path class="cls-1" d="m14.08,74.22s.3.07.27.15c-1.36.18-2.74.21-4.11.08-.07-.27.33-.13.51-.15.09-.01.21-.08.23-.08.94,0,2.21-.1,3.1,0Z"/>
    <path class="cls-1" d="m81.7,76.85l-.15-2.33c-.58-.02-1.17.03-1.75,0-.29-.01-.62-.11-.93-.11-2.01-.04-4.09.31-6.06.19-.26-.02-.67-.06-.89-.2,1.38-.19,2.78-.08,4.18-.13l1.29-2.24,1.35,2.29c1.31-.21,2.65-.14,3.96.04,0,.11-.28.14-.36.14-.22.02-.43,0-.65,0,.24.74.33,1.56.16,2.33,1.16.01,2.33-.05,3.49.08.03.08-.18.15-.19.15h-1.55c-.38,0-.12.74-.12.96,0,.29-.08.76-.15,1.06l7.68.39c.03.08-.18.15-.19.15h-2.75c.09.34.21,1.06-.08,1.32-.12-.44-.15-.87-.08-1.32-2.19-.13-4.4-.36-6.6-.16,0,.29-.04.59-.09.88-.02.13-.03.47-.14.52,0-.53-.04-1.08.15-1.6l2.02-.19c-.13-.63-.11-1.31,0-1.94l-3.18-.08c.12.61.14,1.28-.12,1.86-.32-.23.03-1.8-.04-1.86l-.62-.08.5-.15h1.9Z"/>
    <path class="cls-1" d="m85.2,81.59l-3.72.08c-.04.22-.05,1.71-.19,1.71-.07-.64-.15-1.29-.12-1.94,1.07.01,2.15-.01,3.22,0,1.43.02,2.9.04,4.34.22,1.69-.21,3.4-.09,5.08.09l-1.05.16c-1.17-.16-2.37-.06-3.56-.07-.18.06-.17.92-.23,1.17-.02.08-.03.23-.13.21v-1.47h-3.29c-.1.04-.11.11-.13.19-.07.39.03,1-.08,1.44-.08.03-.15-.18-.15-.19v-1.59Z"/>
    <path class="cls-1" d="m78.45,81.35c-.01-.36-.2-2.23,0-2.37.16-.12,1.98.21,2.33.2-.02.15-.31.15-.42.16-.56.04-1.12,0-1.67-.08l-.08,2.17,2.1.08c.02.08-.33.15-.35.15h-3.06c.11.26.1.6.08.89,0,.09-.03.54-.19.5-.27-.4-.09-.98.04-1.4-1.61-.08-3.32,0-4.92-.16-.08,0-.29-.03-.28-.15h6.44Z"/>
    <path class="cls-1" d="m84.03,85.39c-.11-.01-.13-.34-.15-.44-.07-.49-.04-1.03-.16-1.5,2.77-.09,5.54-.06,8.3.16l-.81.16-2.22-.05c-.17.12.06,1.41-.38,1.6-.04-.56.02-1.09.15-1.63h-4.73v1.71Z"/>
    <path class="cls-1" d="m74.64,71.35s.05-.92.36,0c.94.06,1.91.04,2.85.16.09.01.42.03.44.15-1.55.12-3.11,0-4.66-.08.13.32.02,2.51-.12,2.56-.2.03-.1-.15-.11-.27-.08-.77,0-1.52.08-2.29-.35,0-.78-.02-1.12-.09-.08-.02-.29-.03-.28-.15.33-.07,2.47.09,2.56,0Z"/>
    <path class="cls-1" d="m77.44,76.78c.12.22.13,1.63-.12,1.63-.23,0-.01-1.46.04-1.63-1.56.03-3.12-.11-4.68-.17l-.59-.14c.22-.01.43-.07.66-.08,1.28-.07,2.9.01,4.2.08.68.04,1.41.08,2.09.16.14.02.12-.02.11.16h-1.71Z"/>
    <path class="cls-1" d="m75.19,80.46c-.01.1-.1.25-.12.35-.34-.51-.16-1.15-.12-1.71-.25.02-2.95-.05-2.95-.19.21-.05.44-.11.66-.12,1.47-.09,3.65,0,5.12.17.08,0,.36.03.36.15-.98.06-1.97.16-2.95,0-.04.43.05.93,0,1.36Z"/>
    <path class="cls-1" d="m82.01,83.61c.02.13-.18.07-.27.08-.46.02-.9.04-1.36.08-.04.18-.11,1.35-.16,1.4-.01.01-.3.01-.31,0-.13-.13.23-1.4.15-1.47-1.35,0-2.72.03-4.04-.19,1.29-.09,2.62-.19,3.92-.12.26.01.47.13.7.15.45.04.91-.05,1.35.09Z"/>
    <path class="cls-1" d="m75.81,83.06l-.23,2.41-.16-.73.08-1.36-3.72-.08c.03-.14.15-.14.27-.16.29-.03.72-.06,1.01-.07.91-.04,1.84.03,2.75,0Z"/>
    <path class="cls-1" d="m85.74,77.36c.02-.22.1-.64.35-.66l3.68.27c0,.2-3.38.1-3.73.04-.03.49-.02,1.13-.15,1.59-.03.11,0,.24-.16.27.04-.49-.05-1.04,0-1.51Z"/>
    <path class="cls-1" d="m82.48,71.58c.02.1-.14.13-.21.14-1,.15-2.11.11-3.12.17.03.68-.06,1.35-.12,2.02-.09,0-.19-1.11-.2-1.28s-.05-1.05.12-1.05h3.53Z"/>
    <path class="cls-1" d="m89.27,74.22s.13.07.23.08c.18.02.57-.12.51.15-1.36.13-2.76.11-4.11-.08-.03-.08.26-.15.27-.15.99,0,2.13-.07,3.1,0Z"/>
    <path class="cls-1" d="m44.23,48.22c-.05.34-1.32.74-1.32.81l.77,1.16c-.47.07-.74-.68-1.01-1.01-.37-.44-.89-.69-1.16-1.2.16-.13,1.11.82,1.28.83.15,0,1.08-.74,1.43-.59Z"/>
    <path class="cls-1" d="m42.83,51.56c-.28.02-.49-.2-.7-.35l-1.94-1.98c1.15.37,1.79,1.53,2.64,2.33Z"/>
    <path class="cls-1" d="m48.03,48.3c-.12.01-.13-.2-.15-.28-.13-.74-.26-1.88-.32-2.63-.01-.17,0-.34,0-.5.12.02.18.27.21.37.3.92.41,2.08.25,3.04Z"/>
    <path class="cls-1" d="m40.58,56.76c.08.2-.4.21-.51.22-.94.08-1.89.11-2.82,0-.01-.19-.02-.13.12-.15.11-.01.43-.08.47-.08h2.75Z"/>
    <path class="cls-1" d="m45.62,49.15c-.08.08-.36-.24-.43-.31-.27-.29-.61-.76-.84-1.1-.27-.39-.63-.85-.74-1.31.81.76,1.46,1.75,2.02,2.72Z"/>
    <path class="cls-1" d="m41.05,55.13c-.98-.02-1.99.06-2.95-.11-.13-.02-.34-.05-.38-.2.63.03,1.27-.04,1.9,0,.31.02.88.07,1.17.15.11.03.24,0,.27.16Z"/>
    <path class="cls-1" d="m46.55,48.45c-.22.04-.13-.04-.17-.17-.14-.41-.23-.84-.39-1.25-.18-.46-.45-.9-.6-1.38.79.62,1.16,1.8,1.16,2.79Z"/>
    <path class="cls-1" d="m58.74,47.99c-.19.48-.72.73-1.05,1.08-.38.41-.57,1.02-1.12,1.24l.77-1.28c0-.1-1.27-.48-1.32-.81.32-.14,1.39.63,1.5.61.07-.01,1.08-.97,1.21-.85Z"/>
    <path class="cls-1" d="m52.76,44.89l-.08.78c.21-.11.47-.02.7.04.09.02.45.09.39.23-.2.36-1.11-.26-1.16-.19-.09.78-.12,1.59-.24,2.37-.02.14.04.13-.15.12-.12-.94-.02-2.1.29-3.01.05-.14.05-.38.25-.33Z"/>
    <path class="cls-1" d="m60.13,49.23l-1.79,1.81c-.29.2-.53.52-.92.51.87-.81,1.51-1.97,2.72-2.33Z"/>
    <path class="cls-1" d="m62.42,56.76c.15.01.6.08.66.23-.99.11-1.99.09-2.98,0-.12-.01-.51-.02-.44-.22.89.06,1.88-.08,2.75,0Z"/>
    <path class="cls-1" d="m56.72,46.44c-.54.98-1.17,1.97-2.02,2.71.38-.8,1.05-1.84,1.67-2.48.06-.06.27-.31.35-.23Z"/>
    <path class="cls-1" d="m62.54,54.82c.04.23-.06.12-.19.16-1,.25-2.12.12-3.15.15-.02-.11.14-.11.22-.13.23-.07.92-.18,1.14-.18h1.98Z"/>
    <path class="cls-1" d="m53.85,48.46c-.17.18-.16-.2-.15-.27.04-.81.51-2.01,1.16-2.52l-1.01,2.79Z"/>
    <path class="cls-1" d="m41.82,40.7c-.02-.2-.01-.13.12-.15.56-.1,1.43-.14,2.01-.16.85-.02,1.68.03,2.52.08.01.11-.2.14-.28.15-.32.04-.65.01-.96.08.06.21.23,1.08-.12,1.09-.09,0-.15-.97-.12-1.09h-3.18Z"/>
    <path class="cls-1" d="m52.57,9.97c.06,0,.16.11.27.08.17.16-1.03.24-1.13.24-.35,0-.77-.1-1.12-.16-.03-.08.18-.15.19-.15.54,0,1.28-.06,1.78,0Z"/>
    <path class="cls-1" d="m55.25,40.7c-.01.27.02.54,0,.81-.06.53-.3.27-.31-.15,0-.24.05-.43.08-.66-.1-.1-1.06.04-1.16-.23.79-.06,1.57-.1,2.37-.08.6.02,1.51.05,2.09.16.13.02.13-.05.12.15h-3.18Z"/>
    <path class="cls-1" d="m46.32,34.49c-.03.16-.16.13-.27.15-.64.12-1.4.11-2.06.16.13.47.18.85,0,1.32-.27-.28-.17-.94-.23-1.32h-1.2c-.14,0-.54-.13-.74-.12l.74-.19h3.76Z"/>
    <path class="cls-1" d="m57.61,34.49c.22.01.54.15.81.08.12.1,0,.14-.12.15-.13.02-.48.08-.54.08h-1.28l-.12,1.32c-.34-.35-.18-.9-.12-1.32-.66-.05-1.41-.03-2.06-.16-.11-.02-.24,0-.27-.15,1.21.06,2.49-.08,3.69,0Z"/>
  </g>
  <path class="cls-2" d="m50.37,22.5c.1.12.13.33.07.47-.01.03-.06.1-.05.12.01.02.17.06.2.07.56.19.95.69.98,1.28.02.34-.02.61.09.95.07.21.23.54.39.7.14.15.38.05.4.3,0,.08.01.34-.01.41s-.07.11-.14.13c-.6.02-1.21,0-1.82,0-.08.02-.07.09-.08.15-.09.44-.68.44-.77.03-.01-.06,0-.17-.08-.18h-1.77c-.14-.01-.2-.08-.21-.21,0-.08-.01-.34.01-.4.05-.15.24-.12.34-.19.12-.09.31-.43.37-.57.18-.43.13-.69.16-1.13.03-.62.44-1.1,1.02-1.29.03-.01.14-.03.16-.05,0,0,0-.01,0-.02,0-.02-.05-.1-.06-.13-.18-.47.46-.86.8-.45Zm-.15.3c0-.12-.1-.21-.21-.21s-.21.1-.21.21.1.21.21.21.21-.1.21-.21Zm-2.45,3.64v.11s4.47,0,4.47,0v-.11s-4.47,0-4.47,0Z"/>
  <path class="cls-2" d="m95.23,69.93c-.06-.08-.19-.97-.26-1.19-.25-.83-.63-1.73-1.17-2.4-.16-.2-.7-.64-.77-.78-.15-.34-.02-.74-.36-1.11-.13-.15-.33-.18-.38-.26-.11-.2-.18-.99-.29-1.32-.74-2.28-2.78-2.28-3.51.02-.1.3-.19,1.14-.28,1.28-.04.07-.33.22-.46.39-.15.21-.18.54-.28.66-.08.09-.43.22-.59.35-.56.47-.93.98-1.22,1.66l-.29.83c-1.25-9.24-6.09-17.95-13.81-23.24v-1.74h-1.87c-.04-5.77-4.58-10.29-9.62-12.37-.41-.17-1.06-.47-1.47-.55-.15-.03-.34.11-.43-.03l-.03-13.86c-.33-.39-.31-.98-.45-1.49-.41-1.5-1.25-2.65-2.49-3.56-.13-.1-.74-.4-.77-.43-.04-.06-.06-.37-.13-.53-.23-.52-.72-.43-1.05-.81-.91-1.07-1.36-3.39-2.38-4.06-.18-.12-.64-.21-.64-.25v-3.03h-.54v3.03s-.54.22-.74.39c-.98.84-1.26,2.94-2.25,3.96-.3.31-.88.35-1.02.77-.05.15,0,.36-.07.47-.04.07-.6.33-.73.43-1.44,1.03-2.29,2.34-2.69,4.07-.04.17-.09.9-.12.93-.04.03-.21-.04-.23.05l-.03,13.92c-.09.13-.32-.03-.53.02-.29.06-1.09.44-1.43.59-5.06,2.15-9.46,6.54-9.57,12.35h-1.86v1.74c-7.66,5.27-12.64,14.03-13.74,23.24-.12-.01-.12-.12-.15-.2-.32-.81-.43-1.36-1.1-2-.22-.22-.75-.49-.89-.66-.16-.21-.15-.55-.39-.78-.11-.11-.3-.13-.35-.21-.09-.15-.13-.77-.2-1.02-.24-.84-.73-1.92-1.71-2.02-1.14-.12-1.75,1.16-2,2.08-.07.27-.06.69-.13.88-.05.13-.53.36-.65.67-.06.18-.06.75-.08.78-.03.05-.59.5-.73.66-.74.87-1.24,2.17-1.46,3.28-.02.12,0,.47-.02.49-.03.02-.44-.02-.54,0v15.98h36.54c.05-4.18.03-8.36.08-12.54.03-2.67.13-5.39.16-8.06.05-4.52-.78-9.62,1.98-13.45,2.96-4.11,9.86-4.5,13.26-.78,3.31,3.62,2.55,8.02,2.59,12.54.08,7.33.26,14.68.23,22.03-.02.08.05.27.12.27h36.43v-15.98s-.4.06-.47-.05Zm-5.62-2.83c.99-.06,1.79.23,2.41,1.01.47.59.55,1.19.81,1.87h-5.43c.14-1.37.64-2.77,2.21-2.88Zm-30.84-36.54c.09-.09,2.23.85,2.48,1.05-.32.42-.73.89-.77,1.44.42-.31.77-.8.85-1.32.12-.11,1.27.62,1.46.74.25.15,1.59,1.02,1.56,1.23-.03.16-.92.95-.85,1.29.13.14,1.07-.99,1.01-1.24.06-.05,1.12.91,1.09,1.05-.15.06-1.1.97-1.01,1.05.52-.12.84-.6,1.21-.93.47.44.89.92,1.28,1.43,0,.06-.88.42-1.03.52-.14.09-.43.26-.44.45.53-.05,1.17-.46,1.51-.85.4.47.71,1,.97,1.55-.5.11-1.05.37-1.47.67-.12.09-.35.18-.32.35.35.09,1.84-.93,1.94-.85l.62,1.78c-.05.06-1.22.16-1.47.28-.13.05-.26.1-.23.27l1.86-.31.31,1.71h-1.67s-.3.09-.12.2c.59.11,1.2.11,1.79-.04l.08,1.01h-2.1c-.28-3.53-2.24-6.94-5.27-8.77.3-.39.67-.75.77-1.24-.13-.14-.92.88-.85,1.08-.06.06-1.22-.69-1.42-.79-.57-.28-1.21-.47-1.76-.8v-1.98Zm0,2.41c3.69,1.28,6.79,4.13,7.83,7.96.19.71.29,1.41.39,2.13h-8.22v-10.09Zm-.31-2.48v1.94c-.64-.19-1.32-.15-1.98-.16-.15,0-.29-.08-.46-.08-.69.01-1.48.35-2.22.28.5.3,1.09.19,1.63.12.02.52-.07,1.05.08,1.55.41-.18.1-1.57.16-1.63.94.05,1.86.08,2.79,0v3.72c-1.62-.2-3.26-.25-4.89-.15v-5.59h4.89Zm-1.7,11.8c.15-.18,1.37,0,1.66-.16l.04.93h-1.71c.03-.15-.05-.7.01-.77Zm-2.96-.24c0,.13.26.15.35.15.77.06,1.6.05,2.36.08-.06.28-.05.52.08.78h-3.03v-6.91c.53.12,1.08.16,1.63.16-.18.66-.16,1.33-.15,2.01-.37-.01-.76.01-1.13.08-.12.02-.13-.05-.11.15h3.03c.04.11-.08.23-.08.27v1.21c.2.05.19-.13.22-.28.08-.38.13-.82.01-1.19.34-.06.71-.04,1.04-.09.08-.01.36-.03.36-.15-1.02-.11-2.09-.13-3.11,0l.08-2.02c1.02.11,2.08.13,3.1,0v5.74h-4.65Zm-7.53-11.79v-11.8h3.24v3.02h.98v-3.02h3.24v11.8h-7.45Zm6.99,2.09v10.71h-6.52v-10.71h6.52Zm-6.99-16.22s-.17.06-.16-.11c.04-.38.59-1.2.85-1.49,1.36-1.42,4.29-1.5,5.78-.27.37.31,1.07,1.21,1.13,1.68.04.27-.16.17-.16.18v1.4h-7.45c-.04-.22.06-1.31,0-1.4Zm-.39-.54s-.11.54-.19.54h-1.12c.08-.74.55-1.26.93-1.86.33.1.54.39.93.31.08-.26-.73-.44-.7-.5.19-.16.66-.73.89-.74.04,0,.38.53.58.59-.51.38-.97.9-1.16,1.51-.98-.51-1.52.04-.16.16Zm8.57-1.32c.18.05,1.08,1.53.97,1.86-.19-.04-1.08.06-1.16,0-.02-.01-.13-.45-.15-.54.22.01.43-.04.63-.11.08-.02.29-.03.22-.17-.12-.23-.86-.07-.85.19h-.08c-.25-.61-.68-1.21-1.24-1.59.18-.06.58-.56.67-.58.14-.02.65.63.8.73-.25.13-.56.22-.7.5.29.19.82-.33.89-.31Zm2.14,7.84c-.86,0-1.72-.04-2.56.16v-1.55c.11-.05.23.08.28.08h2.21c-.16.43.04.88.08,1.32Zm.07-1.27l1.17-.2v1.56l-1.01-.08c.04-.44-.07-.85-.16-1.27Zm1.17,1.5v3.41h-1.4c.16-.51.21-1.02.08-1.55.36.01.7.01,1.05-.08.13-.03.23.08.19-.15-.81-.06-1.6-.06-2.41,0,.14-.43.11-.96,0-1.39-.4.16-.11,1.35-.16,1.39l-.85.12c.09.13.22.11.35.12.57.04,1.11.05,1.67,0-.12.51-.07,1.04-.08,1.55h-1.36s-.36.06-.47.08c-.13.02-.13-.04-.12.15l.78.08c-.12.4-.06.75,0,1.16.16.02.13.02.18-.09.13-.3.02-.74.06-1.07.83.01,1.68,0,2.48-.23v1.55h-3.72c0,.13.25.15.35.16.6.05,1.22.08,1.83.08-.02.41-.29.84-.08,1.24l-2.02.15c-.13.1,0,.14.11.16.15.02.79-.03.82,0l.08.93h-1.16v-7.68l3.8-.08Zm-.19,6.52h-1.28c.05-.42.2-.81.16-1.24l1.32-.08v1.4c-.08.03-.17-.08-.19-.08Zm.19.15v1.09h-2.41l-.08-.93c.83.04,1.66-.05,2.48-.16Zm0-12.57v1.01c-1.07-.13-2.26-.12-3.34,0-.04.08.18.15.19.15h1.2c-.04.41.05.78.16,1.16h-1.28s-.34.08-.27.23l2.44.16.82-.09c.02-.11-.14-.11-.22-.13-.4-.12-.78-.08-1.19-.13l-.3-1.21h1.59s.11-.11.19-.08v2.95l-3.8.15v-4.19h3.8Zm-7.6-11.01c1.04.28,1.23,1.39,1.64,2.2.26.52.97,1.95,1.38,2.26.35.26.69.09.81.67.02.13-.04.31,0,.37.12.19.54.04.28.43-.25.38-1.02.52-1.17,1.04.63-.19,1.21-.52,1.44-1.16,1.79.93,2.87,2.91,2.98,4.89h-2.1c.05-.47-.09-.91-.31-1.32.59-.06,1.27-.28,1.63-.77-.62.07-1.15.44-1.74.63-1.09-1.48-2.73-2.97-4.71-2.88l.54.16c-.06.14-.42,1.09-.12,1.08.23,0,.26-1.01.31-1.01.28-.05,2.32,1.09,2.21,1.24-.25-.04-.61.43-.75.45-.16.04-.56-.35-.8-.3.19-.25.43-.5.39-.85-.29-.06-.51.68-.59.7-.3.06-.97-.28-1.35-.16v-6.51c.52.32.32,1.02.39,1.5.09.59,1.1,1.34,1.7,1.36-.35-.37-1.22-.79-1.38-1.3-.02-.08-.08-.59-.06-.64.09-.2.61-.23.59-.54-.19-.09-.47.17-.57.15-.09-.02-.22-.35-.32-.47-.09-.1-.35-.23-.36-.28-.06-.25.05-.68,0-.95Zm-4.73,5.74c-.07.75.83.97,1.32,1.32.13-.46-1.46-1.09-1.24-1.39.51-.05.33-.32.4-.64.1-.42.44-.35.73-.52.48-.32,1.22-1.89,1.5-2.46.39-.77.59-1.88,1.64-2.04-.04.25.06.66-.01.88-.05.16-.72.43-.61.83l-.7-.15c.26.59.78.16.59,1.01-.16.7-.97.94-1.36,1.47.49-.08,1.26-.59,1.51-1.01.36-.6-.09-1.49.59-1.94v6.6c-.37-.13-1.14.23-1.43.16-.04-.01-.28-.77-.59-.7-.05.35.23.58.39.85-.23-.04-.61.32-.74.32-.15,0-.54-.52-.81-.47.61-.59,1.39-.99,2.21-1.24.06.25.09.5.19.75.05.13.05.3.24.26.04-.4-.02-.74-.23-1.08l.54-.16c-1.98-.09-3.58,1.4-4.7,2.86-.25-.05-1.55-.71-1.66-.61-.02.2.18.27.31.35.34.22.84.4,1.25.43-.16.43-.35.84-.31,1.32h-2.1c.14-2.03,1.27-4.01,3.1-4.96Zm-3.34,6.36c.08-.03.17.08.19.08h1.59c-.12.39-.19.75-.16,1.16-.44.12-.88.06-1.33.19-.08.02-.23.02-.22.13.44.13.81.02,1.21,0,.59-.02,1.37.01,1.93-.08.09-.01.19-.05.2-.15-.1.04-.23-.08-.27-.08h-1.36l.22-1.12c.35-.09.7,0,1.05-.05.08,0,.29-.04.28-.15l-1.83-.16c-.49.16-1.03,0-1.51.16v-1.01h3.8v4.19l-3.8-.15v-2.95Zm1.32,3.26h2.21s.16-.12.27-.08v1.55c-.83-.22-1.7-.14-2.56-.16.06-.43.27-.9.08-1.32Zm-1.32-.23c.19.18,1.14.12,1.17.28l-.16,1.27-1.01.08v-1.63Zm0,1.79l3.8.08v7.68h-1.16c.11-.13.12-.9.15-.93.03-.03.6.02.74,0,.11-.02.24-.05.12-.16l-1.94-.15c.04-.43-.05-.84-.15-1.24.73,0,1.46-.04,2.17-.16-.01-.11-.35-.13-.43-.15-.19-.02-.39,0-.57,0,.08-.42.13-.83,0-1.24l.77-.08c.02-.2.01-.13-.12-.15-.09-.01-.36-.08-.39-.08h-1.43c.06-.52.05-1.04-.08-1.55h2.01c.04-.23-.06-.12-.19-.16-.22-.05-.44-.09-.66-.08.03-.22.08-.42.08-.66,0-.17-.08-.98-.26-.56-.14.32-.06.88.02,1.22-.81-.1-1.6-.05-2.41,0-.02.2-.01.13.12.15.39.07.8.09,1.2.08-.14.48-.11,1.07,0,1.55h-1.39v-3.41Zm0,3.49c.83.23,1.71.23,2.56.23-.15.39-.11.86.08,1.24h-2.37s-.16.12-.27.08v-1.55Zm0,1.7l1.32.08.16,1.24h-1.28s-.14.13-.12.15c.83.11,1.65.19,2.48.16-.09.3-.23.64-.08.93h-2.48v-2.56Zm-.62,4.97h2.79v1.51s.11.16.16.08c.18-.47.12-1.01.08-1.52.51.04.97.19,1.47-.04.12-.05.19.01.15-.19-.75.26-1.53-.16-2.29-.16-.16,0-.32.08-.47.08-.63.02-1.28-.03-1.9.16v-1.94h4.89v5.59c-1.63-.12-3.28-.05-4.89.15v-3.72Zm0,3.8c1.03.12,2.07.09,3.1,0l.08,2.02c-.79-.09-1.79-.14-2.59-.06-.09,0-.43.04-.44.14l1.32.16v1.21s.07.34.23.27c.15-.51.04-.97-.08-1.47h2.99s.12-.11.11-.15l-1.32-.08c.02-.67,0-1.35-.08-2.01.51,0,1.05-.04,1.55-.16v6.91h-2.95c.03-.28.16-.51,0-.77.77-.05,1.61-.02,2.37-.08.09,0,.35-.02.35-.15-1.51-.13-3.07-.13-4.58,0-.04.08.18.15.19.15h1.43v.85h-1.7v-6.75Zm-8.66.15c.42.4,1.01.81,1.59.85-.37-.52-1.01-.7-1.55-.97l1.28-1.43c.11.14,1.07,1.06,1.2.93-.13-.49-.63-.77-1.01-1.05,0-.22.87-.87,1.05-1.05.3.45.5,1.02,1.05,1.24-.07-.51-.6-.9-.84-1.36,0-.2,2.59-1.81,2.98-1.98.19.51.42,1.07.89,1.4-.02-.58-.47-1.02-.78-1.47l2.49-1.01v1.98l-3.07,1.59c-.08,0-.6-1.13-.97-1.08-.11.12.66,1.08.78,1.24-1.77,1.08-3.26,2.76-4.11,4.65-.62-.33-1.19-.74-1.87-.98-.05-.28.73-1.22.9-1.5Zm8.35-3.49v10.09h-8.15c.22-4.73,3.78-8.61,8.15-10.09Zm-10.55,9.08s.1.08.11.08h1.71c.16,0,.12-.23-.08-.23h-1.74l.38-1.67,1.79.28c.02-.21-.25-.29-.4-.33-.4-.12-.89-.11-1.31-.2-.06-.07.59-1.68.7-1.75.11-.08.12,0,.2.04.52.22,1.04.75,1.67.78-.4,1.32-1,2.62-.93,4.03h-2.18l.08-1.01Zm-20.84,25.05c1.92-.15,2.63,1.15,2.76,2.88h-5.35c.22-1.41,1.06-2.76,2.59-2.88Zm18.59,18.48H4.61v-1.94c.43.01.84.09,1.28.08.2,0,1.36-.22,1.36.04v1.32s.09.35.11.35c.02-.08.12-.32.12-.35v-1.74l-2.87.16v-1.79l1.32.08.23,1.47c.1.02.12-.15.13-.22.04-.23-.04-1.4-.19-1.5-.25-.18-1.17.02-1.5.08v-2.25l3.8.23.08,1.63c.27-.17.14-.67.15-.97.02-.26.18-.56,0-.84-.13-.22-1.71-.12-2.07-.13-.18,0-.36-.09-.54-.09-.42,0-.97.17-1.43.09v-2.49l5.04.16.08,1.94c.09.13.14,0,.15-.11.05-.33-.01-.75,0-1.09,0-.29.27-.97-.12-1.04l-5.16.08v-6.36h9.7c-.16.38-.21.77-.08,1.16-2.9.04-5.81-.09-8.69.08l.58.16h2.45c.02.09-.01.15-.04.23-.08.19-1.02,1.85-1.12,1.9-.08.04-.51-.11-.67-.11-.26-.02-1.87.12-1.98.23-.28.26.33.08.35.08h1.86c.19,0,.02,1.14.04,1.36,0,.12.12.93.16.97.01,0,.16.03.16-.04-.18-.67.05-1.45.08-2.14h2.64c-.11-.37-1.44-2.32-1.32-2.48.06-.02.09.08.11.08h2.37c-.29.6-.14,1.33.04,1.94.18.06.11-.17.12-.27.03-.56-.04-1.11-.08-1.67h4.42l-1.28,2.18-.05.23h1.16c-.05.3.06,2.18.28,2.25.18.06.11-.17.11-.27.04-.64-.13-1.35-.23-1.98h1.39l-1.32-2.48h1.4c-.04-.12-.4-.15-.51-.16-.75-.06-1.53.05-2.29-.08.13-.35.13-.81,0-1.16h4.35c-.04.14-.08.83.04.85.3.06.22-.38.2-.59,0-.11-.04-.18-.08-.27h9.55v15.21Zm0-15.6h-10.55c.04-8.52,4.2-16.63,10.55-22.12v22.12Zm-.02-22.56c-.04.14-.28.29-.37.21-.04-.03-.2-.66-.33-.88-.07-.12-.34-.66-.53-.52-.07.05.64,1.42.77,1.58l-2.05,1.98-1.43-1.16c-.02.23.17.42.31.58l1.01.77-2.32,2.72c-.15.07-1.38-1.04-1.56-.9.27.56.88.84,1.4,1.12l-.85,1.25-1.79-.98c-.03.15.08.18.16.27.38.46.92.74,1.47.93-2.6,4.08-4.31,8.77-4.66,13.62-.75-.03-1.53-.11-2.28,0-.3.04-.18.23,0,.23h2.1s.11-.11.19-.08l-.08,1.79h-2.79l.46-3.8c.68.33,1.67.42,2.41.31-.06-.15-.39-.18-.53-.21-.43-.09-1.32-.23-1.72-.13-.1.02-.09.09-.08-.08.01-.5.28-1.08.32-1.59.65.05,1.33.12,1.98.08.13,0,.26.01.35-.12-.73-.22-1.5-.18-2.25-.16.06-.25.36-1.71.5-1.74.23.08.42.21.66.27.18.05,1.56.35,1.55.08,0-.15-1.91-.43-2.17-.5.53-2,1.39-3.87,2.25-5.74l1.04.71.83.29c.03-.17-.24-.28-.36-.37-.43-.3-.91-.53-1.33-.84.08-.23.87-1.66.96-1.66.4.4.94.83,1.52.93.13-.12-.66-.63-.75-.68-.19-.12-.42-.19-.62-.3-.06-.04-.13.02-.09-.13,1.02-1.59,2.11-3.14,3.37-4.55.22.37.52.75.97.85l-.19-.39-.65-.57c.81-.97,1.72-1.89,2.7-2.69.07.51.47,1.04.94,1.24.08-.09-.74-1.19-.85-1.36.78-.68,1.62-1.31,2.48-1.9-.12.61.15,1.65-.02,2.19Zm.4,38.16v-1.87l3.73.08c-.16.56-.11,1.26.15,1.79h-3.88Zm20.95-37.36c0,.19-.86.1-1.05.12-2.63.25-5.09,1.77-6.33,4.11-1.11-.63-2.16-1.42-3.41-1.79.93.8,2.14,1.36,3.26,1.87l-.58,1.16c-.35-.29-.82-.46-1.24-.62-.25-.09-2.05-.7-2.14-.62-.14.13.11.16.15.19.91.54,2.19.74,3.18,1.13-.5,1.46-.95,2.93-.85,4.5h-3.96c.34-4.44,2-9.18,5.67-11.9,2.08-1.55,4.7-2.37,7.29-2.45v4.31Zm-3.04-4.21c-2.02.51-4.01,1.59-5.53,3-.17.16-.85.98-.94.99-.16.04-.65-.13-.88-.06.12-.61.08-1.24.08-1.86-.87.02-1.74-.03-2.6,0-.23,0-.7.17-.87.06-.05-.04-.05-.23-.22-.28-.54-.17-1.69.09-2.28.14-.04.08.18.15.19.15h1.98l.08,1.55c.18.01.14.03.16-.11.05-.43.05-.92.08-1.36,1.08.18,2.17.16,3.26.15v1.36s.11.11.08.19c-.54.04-1.14-.05-1.67,0-.21.02-.38.04-.47.24-1.54-.16-3.14.09-4.69.15v1.79c.12,0,.13-.27.15-.36.06-.37.09-.81.09-1.19l4.42-.31c-.02.57,0,1.14.08,1.71-.83.08-1.7.01-2.52.08-.19.02-.64.08-.74.23h4.23c.11,0,.4-.16.58-.08,0-.05-.1-.16-.11-.16h-1.28l.08-1.79,2.72-.15-1.49,2.28c-.15.31-.32.61-.47.93-.12.27-.47,1.33-.57,1.45-.13.17-.54,0-.77,0-.47-.01-1.09,0-1.55.08-.09.02-.18.05-.2.15.11-.04.23.08.28.08h2.01s.16-.19.12.04c-.12.61-.42,1.33-.57,1.99-.25,1.14-.39,2.31-.44,3.48h4.27l-.08,7.22c-1.7-.24-3.42.04-5.12.08v-1.59c-.19-.28.1-.8-.35-.89-.44-.08-1.59-.02-2.1,0-.35.01-.73.05-1.09.07-.13.01-.26,0-.35.12l3.48.13.32,2.05c.02.06-.08.19-.11.19h-2.06c.12.19.6.22.81.23.81.06,1.73,0,2.52-.08.02.42-.03.86,0,1.28,0,.09.02.53.19.51.25-.57.06-1.21-.04-1.79l3.88-.23v2.41c-.11.05-.23-.08-.28-.08h-1.86s-.15.11-.08.15c.7.2,1.49.21,2.21,0-.02,1.15.02,2.31,0,3.46-.04,2.67-.06,5.39-.16,8.06-.02.55.02,1.11,0,1.67l-2.48-.08.08,1.55c.28-.11.13-1.13.23-1.24l2.17-.08v3.88h-7.75c.01-.6,0-1.19-.08-1.79,1.71-.09,3.45-.01,5.16-.08.45-.02,1.01-.05,1.46-.09.19-.01.65-.06.75-.22l-11.25.23v-2.02c.64.12,1.35.12,2.02.16-.15.43-.07.89.04,1.32.14-.09.09-.22.12-.35.06-.33.13-.84.15-1.16.01-.16,0-.1-.11-.12-.65-.09-1.56.03-2.22.08v-2.25l4.04.15c0,.17-.26,1.86-.12,1.86.1-.14.13-.36.17-.53.05-.25.35-1.59.13-1.65l-4.22.08v-8.53c.72.15,1.48.06,2.22.08.52,0,1.03.16,1.59,0,.06.45.04,1,.16,1.43.02.11,0,.25.15.28v-1.74s-.11-.12-.08-.2h-3.85s-.11.11-.19.08l-.08-2.18h2.17v1.44c0,.1.16.39.08.58.1.02.12-.15.13-.21.09-.61.1-1.27.09-1.88l3.26.16v1.28c0,.06.13.29.19.35.29-.5-.01-1.09.04-1.63h3.21s.13.17.13.19v1.43l.16-.12c-.08-.23.16-1.7-.05-1.75-.14-.03-.59-.06-.76-.08-2.15-.13-4.42.18-6.51-.08l-2.14.16v-7.06l2.48.08c.1.45.04.92.16,1.36.03.13-.08.22.15.19v-1.67c0-.1-.24-.19-.35-.2-.77-.11-1.66.18-2.45.08v-4.5h3.65l.16,1.63s.15-.1.15-.12v-1.63c0-.39-1.95-.05-2.25-.12l.08-1.16,3.03-.15.23,1.16c.22-.06.08-.15.08-.19v-1.13c.98.11,1.97.09,2.95,0-.11-.26-.45-.12-.66-.15-.1-.01-.21-.08-.23-.08h-1.2v-1.78c-.74-.22-1.5.02-2.25,0-.13.1,0,.14.11.15.6.08,1.21.08,1.81.09.17.49.04,1.04.16,1.54-.29-.04-.53-.14-.82,0-.24.11-.16.32-.23.32-.11.01-.36-.08-.54-.08-.87-.03-1.83-.04-2.68.08v1.12s.12.16.08.27l-1.63.08v-3.41l3.26.08c-.14.5-.2,1.07.04,1.56-.05-.29.31-1.68.15-1.8-.37-.26-2.84.06-3.45.01v-2.41l4.27.15.16,2.02.15-.74c.06-.54-.12-1.07,0-1.59h-4.58v-1.94c.32.16,3.73.06,3.73-.2l-3.73.04.08-2.17,4.04.15c-.04.56-.1,1.11-.08,1.67,0,.09-.06.29.08.27,0-.38.41-1.9.24-2.13-.05-.07-1-.13-1.17-.12-.05-.11.08-.23.08-.27v-1.43l5.35-.16-.66-.16c-2.55.02-5.11-.05-7.65.08-.12.09,0,.14.12.15.77.1,1.8-.01,2.6.08-.14.56-.11,1.16.08,1.7h-3.03c.12-.45-.24-2.12-.04-2.41.08-.12,1.02-.08,1.25-.08,5.56.18,11.41.09,16.99,0,.75-.01,1.85-.08,2.56,0,.12.01.24.01.27.15-1.05.13-2.09.23-3.12.49Zm12.16,11.23c-.14-.5-.36-.98-.5-1.47.75-.25,1.53-.44,2.27-.72.34-.13.82-.27,1.07-.52-1.16.15-2.39.58-3.41,1.16l-.54-1.16c.77-.26,1.59-.73,2.3-1.15.26-.15.57-.34.81-.51.09-.06.19,0,.14-.2-.15-.13-2.97,1.48-3.29,1.77-1.19-1.83-2.74-3.19-4.89-3.79-.33-.09-1.1-.3-1.4-.3h-1.2v-4.42c2.43.08,4.9.81,6.93,2.19,3.91,2.66,5.72,7.58,6.03,12.17h-3.96v-1.52c0-.28-.26-1.19-.35-1.51Zm1.01-7.14l2.68.15.08,1.79c-.4.02-.81-.02-1.21,0-.05,0-.16.13-.26.07l-1.29-2.01Zm11.37,37.48h-3.88c-.02-.16.15-.47.15-.59v-1.2l3.73-.08v1.87Zm0-39.85s-.11.12-.12.12h-2.91c.11-.56.08-1.14.08-1.7l2.72-.08-.13-.13c-2.5-.17-5.01-.06-7.51-.1l-.73.16,5.43.16s-.08.1-.08.12v1.16c0,.06.17.42.15.43-.3.03-1.21-.04-1.28.3-.04.19.16,1.22.22,1.5.04.18.03.4.17.53.06-.56-.08-1.2-.11-1.76,0-.09-.02-.17.06-.23l4.04-.19v2.17l-3.65-.08c.03.15.16.13.27.16.28.08.8.13,1.09.15.74.05,1.56,0,2.29-.08v1.94h-4.5v2.33c.11.01.14-.2.15-.28.06-.57.08-1.16.08-1.74,1.43.01,2.86.03,4.27-.15v2.41c-.99.04-2.17-.22-3.15-.08-.6.08-.24.66-.2,1.06.01.13-.02.88.05.88.28-.52.16-1.08.12-1.63l3.18-.08v3.41l-1.63-.08c.08-.23.18-1.27.06-1.38-.16-.15-2.27-.12-2.66-.1-.17,0-.4.11-.53.09-.07-.01-.04-.19-.12-.28-.26-.28-.9.17-.9-.2,0-.44.14-.94.12-1.39.61.01,1.22.01,1.82-.08.13-.02.13.04.12-.15-.33.05-2.25-.29-2.25.11v1.67c-.6,0-1.22.02-1.82.09-.08,0-.29.04-.28.15.96.11,1.93.1,2.9.01.09.03.12.07.11.16-.02.36-.12.76-.06,1.15.12.01.12-.19.15-.28.08-.28.13-.59.16-.88,1,.15,2.01.18,3.03.15l.08,1.16c-.39.12-1.98-.26-2.18.05-.16.26-.01,1.46,0,1.81.11,0,.13-.35.15-.43.04-.39.04-.8.08-1.19h3.65v4.58c-.7-.04-1.61-.22-2.29-.16-.11.01-.5.07-.5.2v1.55s.13.14.16.12l.15-1.55c.83-.03,1.67.08,2.49-.08v7.06l-2.06-.16c-2.08.27-4.31-.05-6.44.08-.17.01-.97.09-.97.2v1.55s.07.3.15.27l.08-1.7h3.34c-.08.43-.18,1.09-.08,1.51.02.09.02.26.15.12.12-.13.16-1.38.08-1.63l3.26-.16.16,2.1c.08.03.15-.26.15-.27v-1.75h2.18v2.18c-.11.04-.23-.08-.28-.08h-3.72c-.06,0-.19.45-.19.51v1.24s.08.23.15.19l.16-1.71,3.88.04v8.42l-4.16-.08c-.06,0-.12.02-.16.07-.12.18.1,1.29.16,1.56.03.14.07.47.19.54.03-.62-.04-1.25-.15-1.86l4.11-.15v2.25c-.23-.05-2.41-.16-2.41-.04l.24,1.59c.13,0,.15-.26.15-.35.02-.3.03-.69-.08-.97l2.1-.08v1.94l-11.33-.23.74.22c2.24.11,4.47.13,6.71.17-.16.56-.25,1.22-.08,1.79h-7.75c.02-.08-.08-.17-.08-.2v-3.68l2.12.09c.26.08.03.96.2,1.23.08.02.16-.33.16-.35v-1.2l-2.49.08-.15-13.19c.75.23,1.59.22,2.33-.04,0-.19-2.08-.13-2.33-.04v-2.41l3.88.23c-.08.19-.18,1.75-.04,1.79.17.04.18-.26.19-.35.07-.49.03-.95,0-1.43,1.09.16,2.24.08,3.34,0,0-.05-.1-.16-.12-.16h-2.05l.31-2.25,3.49-.12c-.09-.13-.21-.11-.35-.12-.47-.03-3.08-.16-3.3-.04-.11.06-.15.27-.16.39-.08.67-.07,1.39-.08,2.06-1.7-.04-3.42-.32-5.12-.08l-.08-7.22h4.27c-.04-1.88-.39-3.75-1.01-5.51h2.21s.3-.07.28-.15c-.84-.2-1.7-.18-2.55-.09l-1.18-2.63,4.89.08-.66-.23h-2.56c-.18,0-.04-.39-.04-.5.01-.43-.01-.86,0-1.29l4.42.31c.05.19.1,1.56.2,1.56.15-.6.06-1.18.04-1.79l-6.75-.39v-1.55l3.21-.08c.25.06-.04,1.29.28,1.4-.06-.15.08-.36.08-.43v-1.13h2.05s.12-.11.12-.15c-.11-.11-2.05-.21-2.28-.14-.17.05-.17.25-.22.28-.19.11-.71-.06-.95-.06-.42-.02-2.14-.08-2.39.01-.31.1-.02,1.52-.05,1.85-.23-.08-.73.11-.88.07-.08-.02-.91-.98-1.1-1.16-1.91-1.74-4.43-2.79-6.99-3.17-.43-.06-.9-.04-1.31-.09-.14-.02-.12.02-.11-.16h21.03v2.29Zm.31-.5c.87.57,1.7,1.19,2.46,1.9l-.84,1.36c.2.2,1.05-.98.93-1.24.13-.13,2.48,2.42,2.7,2.62.08.2-.35.33-.53.52-.06.06-.37.45-.31.51.46-.06.8-.47.97-.85,1.27,1.43,2.47,2.98,3.38,4.66-.56.19-1.12.53-1.47,1.01.63-.11,1.13-.57,1.63-.93l.85,1.66c-.04.19-1.58.84-1.7,1.21.31.04.56-.18.83-.29l1.04-.71c.91,1.84,1.67,3.75,2.32,5.71l-2.25.54c.66.3,1.57-.08,2.21-.35.12.03.57,1.71.51,1.79-.59-.08-1.16-.07-1.74,0-.13.01-.5.02-.43.23.75-.01,1.5.05,2.24-.07l.39,1.67c-.69-.02-1.52,0-2.18.21-.08.03-.24.02-.22.13.78.16,1.63-.06,2.4-.23l.47,3.73h-2.79v-1.59s-.15-.06,0-.16c.05-.09.09.04.12.04.64,0,1.49.07,2.1,0,.03,0,.3-.07.27-.15-.85-.2-1.7-.12-2.56-.08-.32-4.85-2.04-9.56-4.65-13.62.25.01,1.87-.94,1.63-1.2l-1.68,1-.11-.03-.85-1.28c.42-.14.95-.47,1.24-.81.07-.09.19-.13.15-.28-.13-.12-1.28.84-1.5.92l-2.38-2.83c.52-.22,1.16-.64,1.32-1.2-.16-.16-1.18.98-1.32,1.05-.09.05-.13.04-.19-.04l-1.97-1.91c.32-.52.68-1.05.77-1.66-.47.33-.74,1.01-.85,1.55-.08-.06-.37-.23-.39-.29-.13-.56.12-1.57,0-2.19Zm10.55,24.76h-10.55v-22.12c6.36,5.47,10.55,13.61,10.55,22.12Zm13.27,6.75l-5.28-.08v2.05s.08.3.16.28l.08-2.02,5.04-.16v2.49h-3.84s-.12.1-.2.08v1.67s.08.23.16.19l.08-1.63,3.8-.23v2.25c-.25-.06-1.42-.25-1.54-.06-.06.09-.13,1.09-.12,1.27,0,.09-.01.43.11.43l.3-1.44,1.25-.11v1.86l-2.87-.23v1.21l.16.89.15-1.79c.87.02,1.7.16,2.56,0v1.94h-23.82v-15.21h9.54c-.1.32-.11.61,0,.93.34-.2.23-.63.15-.93h4.34c-.15.36-.09.79,0,1.16-.75.15-1.53.02-2.29.08-.1.01-.47.04-.5.16h1.28s.15.12.11.18l-1.32,2.3h1.4c-.06.74-.32,1.52-.15,2.25.11.08.31-.81.31-.89v-1.36h1.24l-1.32-2.41h4.35c.06.23-.25,1.93.04,1.94.18,0,.33-1.74.04-1.94h2.56l-1.39,2.41h2.64l.23,2.25c.16-.61.18-1.19.16-1.82,0-.17-.22-.59.12-.59h1.7s.71.19.43-.08c-.05-.05-1.34-.23-1.51-.23-.24,0-1.08.15-1.13.12-.12-.06-1.05-1.85-1.16-2.13h2.52l.5-.16c-2.89-.16-5.79-.04-8.69-.08.15-.37.1-.81-.08-1.16h9.7v6.36Z"/>
  <g>
    <path class="cls-2" d="m9.15,95.87h-3.13l-.7,1.96h-1.02l2.85-7.47h.86l2.86,7.47h-1.01l-.71-1.96Zm-2.83-.81h2.54l-1.27-3.49-1.27,3.49Z"/>
    <path class="cls-2" d="m15.15,97.01h3.54v.81h-4.53v-7.47h.99v6.67Z"/>
    <path class="cls-2" d="m27.08,90.35v5.08c0,.7-.22,1.28-.66,1.73-.44.45-1.04.7-1.79.75h-.26c-.82.01-1.47-.21-1.96-.65-.49-.44-.73-1.05-.74-1.82v-5.09h.98v5.06c0,.54.15.96.45,1.26.3.3.72.45,1.27.45s.98-.15,1.28-.45c.3-.3.44-.72.44-1.26v-5.07h.99Z"/>
    <path class="cls-2" d="m33.39,96.51l2.13-6.16h1.08l-2.77,7.47h-.87l-2.77-7.47h1.07l2.12,6.16Z"/>
    <path class="cls-2" d="m40.94,97.82h-.99v-7.47h.99v7.47Z"/>
    <path class="cls-2" d="m50.76,97.82h-.99v-3.45h-3.77v3.45h-.99v-7.47h.99v3.21h3.77v-3.21h.99v7.47Z"/>
    <path class="cls-2" d="m59.01,95.87h-3.13l-.7,1.96h-1.02l2.85-7.47h.86l2.86,7.47h-1.01l-.71-1.96Zm-2.83-.81h2.54l-1.27-3.49-1.27,3.49Z"/>
    <path class="cls-2" d="m66.76,94.8h-1.76v3.02h-.99v-7.47h2.47c.84,0,1.49.19,1.94.57.45.38.68.94.68,1.67,0,.47-.13.87-.38,1.22-.25.35-.6.6-1.05.77l1.76,3.17v.06h-1.06l-1.62-3.02Zm-1.76-.81h1.51c.49,0,.88-.13,1.17-.38.29-.25.43-.59.43-1.02,0-.46-.14-.82-.41-1.06-.28-.25-.67-.37-1.19-.38h-1.51v2.84Z"/>
    <path class="cls-2" d="m76.9,95.87h-3.13l-.7,1.96h-1.02l2.85-7.47h.86l2.86,7.47h-1.01l-.71-1.96Zm-2.83-.81h2.54l-1.27-3.49-1.27,3.49Z"/>
    <path class="cls-2" d="m83.71,94.1l1.95-3.75h1.12l-2.58,4.69v2.79h-.99v-2.79l-2.58-4.69h1.13l1.94,3.75Z"/>
    <path class="cls-2" d="m93.67,95.87h-3.13l-.7,1.96h-1.02l2.85-7.47h.86l2.86,7.47h-1.01l-.71-1.96Zm-2.83-.81h2.54l-1.27-3.49-1.27,3.49Z"/>
  </g>
</svg>