<?xml version="1.0" encoding="UTF-8"?>
<svg id="Layer_1" data-name="Layer 1" xmlns="http://www.w3.org/2000/svg" viewBox="0 0 100 100">
  <defs>
    <style>
      .cls-1 {
        fill: #f5b83f;
        stroke: #f5b83f;
        stroke-miterlimit: 10;
      }
    </style>
  </defs>
  <path class="cls-1" d="m37.2,85.16l-3.6.31c-.01.18-.03.14.12.15.39.05,2.58-.18,2.68-.08-.07.69-.16,1.41,0,2.09h-4.42s-.01.3,0,.31c.08.09,2.08-.03,2.41.08-.02.14,0,1.24.12,1.24l.12-1.32,3.41-.31-.74-.08c-.2-.04-.57.19-.7,0-.04-.06.06-1.12.05-1.36,0-.22-.11-.43-.07-.65.11-.13,2.95-.12,3.37-.16l.58-.15c-1.09-.16-2.2-.04-3.3-.08Z"/>
  <path class="cls-1" d="m36.58,78.8c-.06,0-.23.13-.35.08.01.11.11.14.2.15.25.04,1.91.01,1.98.08-.09.63-.14,1.28,0,1.9-.31.08-2.09.01-2.22.19-.16.23.33,1.39.36,1.71.14.01.08-.26.08-.35-.03-.38-.13-.83-.23-1.2,1.21,0,2.49.02,3.69-.16.14-.02.13.04.12-.15h-1.63c.13-.66.1-1.35,0-2.02h1.59s.17-.11.27-.08c.06-.04-.13-.14-.19-.15-.92-.14-2.63,0-3.65,0Z"/>
  <path class="cls-1" d="m34.49,66.93c-.74.02-1.67.07-2.39.17-.1.01-.42.03-.44.14,2.76,0,5.52.02,8.27-.07l.73-.16c-.85-.09-1.7-.09-2.56-.08-.05-.51-.06-1.07-.18-1.57-.04-.15-.03-.39-.21-.45-.12.68-.02,1.38.23,2.02-1.15.03-2.31-.04-3.46,0Z"/>
  <path class="cls-1" d="m32.82,81.52c-.06.47-.24,1.19.15,1.55.12-.51.11-1.04,0-1.55.83-.02,1.68-.05,2.5-.18.09-.01.38-.02.37-.13l-6.75-.04c0,.21,3.4.41,3.72.35Z"/>
  <path class="cls-1" d="m38.95,67.94c-.14.63.01,1.19.23,1.78-1.14,0-2.28.06-3.41.16-.03.08.18.15.19.15h2.44c-.14.4-.2.66-.12,1.09.02.1,0,.28.15.23.16-.05.11-1.12.12-1.32h1.44c.1,0,.4-.16.58-.08v-.15s-1.12,0-1.12,0c-.3-.51-.09-1.4-.5-1.86Z"/>
  <path class="cls-1" d="m36.04,64.76c.09,0,.35-.02.35-.15-.97-.02-1.94-.09-2.91-.08-1.31,0-2.71.06-4.03.16-.08,0-.51.08-.51.12,1.19.15,2.41.14,3.61.12,1.14-.02,2.34-.07,3.49-.16Z"/>
  <path class="cls-1" d="m33.44,76.71c.99.12,1.99.07,2.99.07,1.19,0,2.43.06,3.62-.17.09-.02.31-.02.29-.13l-6.33.07-.58.16Z"/>
  <path class="cls-1" d="m42.32,50.01c-.2,0-.44.12-.62.08-.09-.02-.01-.2-.04-.24-.15-.2-.23.43-.23.51-.02.22-.02,1.41.08,1.51.12.12.14-.01.15-.12.07-.5.14-1.02,0-1.51,1.27.04,2.55.18,3.8-.08l-.66-.16c-.83.03-1.66-.03-2.49,0Z"/>
  <path class="cls-1" d="m35.92,80.47s.07.3.15.27c-.07-.54.13-1.1.12-1.63,0-.09,0-.12-.09-.15-.31-.09-1.73-.03-2.16-.01-.18,0-.35.08-.54.08-.19,0-1.52-.07-1.52.11l4.04.12v1.2Z"/>
  <path class="cls-1" d="m39.65,83.3l-3.96.12c.09.13.21.11.34.12.92.06,1.84.09,2.76.08.04.04.15,1.08.39,1.16l-.15-1.16c.37-.04.72.18.62-.31Z"/>
  <path class="cls-1" d="m34.92,83.61v1.55c.2.02.13.01.15-.12.04-.21.2-1.58.15-1.66-.13-.2-.9-.01-1.11,0-.66.02-1.32-.03-1.98.08-.03.08.16.15.19.15.78.11,1.79-.08,2.6,0Z"/>
  <path class="cls-1" d="m31.35,80.55s.07.3.15.27c-.02-.45.2-1.17.16-1.59,0-.09-.03-.24-.12-.27-.23-.07-1.42,0-1.78,0-.02,0-.14.07-.23.08-.18.02-.57-.12-.51.15l2.33.08v1.28Z"/>
  <path class="cls-1" d="m33.87,63.13h1.67c.02.38-.07.96.23,1.24v-1.55h-2.06c-.06,0-.41.06-.54.08-.11.01-.24.06-.11.15.25-.08.64.08.81.08Z"/>
  <path class="cls-1" d="m29.76,83.46c-.17.01-.33.09-.51.08-.03.08.16.15.19.15.57.08,1.31-.06,1.9,0l.12,1.4c.13,0,.35-1.43.09-1.64-.15-.12-1.5-.01-1.79,0Z"/>
  <path class="cls-1" d="m37.71,51.76c.03.11,0,.24.15.27.09-.25.15-2.32-.04-2.33-.21.61-.28,1.43-.12,2.06Z"/>
  <path class="cls-1" d="m63.94,85.83s-.12-.16-.08-.27c.1-.09,2.27.13,2.68.08.14-.02.13.03.11-.15-2.05-.23-4.11-.36-6.17-.31l-.73.16,4.03.23c-.22.67-.19,1.4-.08,2.09-.28.02-.53-.07-.81-.08-.13,0-.53-.06-.59.08,1.09.21,2.21.29,3.33.32.13.42.08.87.09,1.31.11.01.14-.2.15-.28.03-.32,0-.65,0-.96.31-.08,2.32,0,2.41-.08.02-.02-.01-.2,0-.27l-4.35-.04v-1.82Z"/>
  <path class="cls-1" d="m61.41,79.04c.47,0,.2.57.19.89,0,.39.04.75.08,1.13h-1.51s-.12.1-.12.15c1.26.12,2.53.19,3.8.16-.13.5-.22,1.04-.19,1.55.11-.21.19-.45.25-.68.06-.21.33-1,.05-1.09-.03,0-.58-.09-.61-.09h-1.51c.15-.61.1-1.32,0-1.94.07-.07,1.71-.04,1.97-.08.09-.02.18-.05.2-.15-.16.06-.33-.07-.43-.08-1.03-.11-2.42,0-3.49,0-.02,0-.24.08-.27.12,0,.03.25.12.27.12h1.32Z"/>
  <path class="cls-1" d="m67.35,81.52c-.16.44-.22.98-.08,1.44.03.08.03.25.16.11.12-.13.1-1.31,0-1.55,1.13-.04,2.5.02,3.59-.26.08-.02.23-.02.22-.13l-6.83.12c0,.15,2.68.3,2.95.27Z"/>
  <path class="cls-1" d="m60.13,76.59c1.11.26,2.28.13,3.41.27.03.09-.07.16-.08.19-.05.41,0,.97,0,1.4,0,.01.07.18.12.19.03,0,.12-.18.12-.19v-1.47s-.12-.09-.08-.12c1.06-.12,2.13-.02,3.18-.16l-.44-.14-6.47-.09c-.02.12.15.1.23.12Z"/>
  <path class="cls-1" d="m61.3,67.94c-.15.03-.13.16-.16.27-.08.3-.16,1.38-.26,1.52-.15.21-.98-.08-1.21.19.18,0,.42.1.58.12.49.04,1.02-.03,1.51,0l-.08.66.19.66c.23-.41.13-.91-.04-1.32h2.44s.23-.08.19-.15c-1.13-.1-2.28-.12-3.41-.16.24-.58.42-1.16.23-1.78Z"/>
  <path class="cls-1" d="m64.17,80.74c.11.02.12-.14.13-.21.08-.37.16-.9.02-1.26h3.3s.73-.16.73-.16l-4.27-.16.08,1.78Z"/>
  <path class="cls-1" d="m57.85,50.01c-.99-.02-2.01-.02-2.99.08.03.14.15.14.27.16,1.14.14,2.33.12,3.46-.08v1.59s.12.14.15.12c.18-.68.14-1.33,0-2.02-.25.4-.49.16-.89.15Z"/>
  <path class="cls-1" d="m61.22,84.78c-.03-.2.24-1.11.36-1.15l2.86-.09.11-.15-3.96-.08c-.1.49.25.27.62.31.14.14-.4,1.02,0,1.16Z"/>
  <path class="cls-1" d="m68.9,79.27l2.33-.08c.07-.27-.33-.13-.51-.15-.1-.01-.19-.08-.23-.08-.54-.04-1.16,0-1.71,0-.04,0-.2.19-.19.27l.19,1.59c.24-.5.19-1.03.12-1.55Z"/>
  <path class="cls-1" d="m65.76,83.39c-.2,0-.63-.18-.73.13-.02.07.11,1.21.15,1.38.02.11,0,.24.15.27v-1.55h2.68s.12-.1.12-.15c-.79-.11-1.58-.07-2.37-.07Z"/>
  <path class="cls-1" d="m64.63,64.37l.08-1.24h1.75l.74-.19c-.23,0-.55-.1-.74-.12-.64-.04-1.33.03-1.98,0v1.44s.13.14.15.12Z"/>
  <path class="cls-1" d="m68.72,83.45c-.3.19-.03,1.31.03,1.64.02.02.15-.09.15-.12.08-.32-.06-.92,0-1.28h1.9s.23-.08.19-.15c-.44,0-1.98-.27-2.28-.08Z"/>
  <path class="cls-1" d="m62.31,50.21c-.02.24-.01,1.64.08,1.75.2.02.12,0,.16-.11.19-.63.03-1.41,0-2.06-.14-.2-.23.37-.23.43Z"/>
  <path class="cls-1" d="m63.86,56.53c-.13.52-.2,1.06-.16,1.59.03.52.22.97.31.15.05-.46,0-1.07,0-1.55,0-.01-.08-.23-.15-.19Z"/>
  <path class="cls-1" d="m9.5,85.63h2.68c-.36,1.78.44,1.6.16,0,2.19-.12,4.4-.38,6.59-.15l.24,1.31v-1.36c0-.33-1.85-.29-2.17-.35.23-.64.15-1.3,0-1.94l3.18-.08c-.09.58-.11,1.13.06,1.69.04.14-.03.2.18.17v-1.59s-.12-.16-.08-.27l.7-.08-.5-.15h-1.86c-.06,0-.08-.09-.08-.16,0-.72.15-1.45.12-2.17h1.9l.81-.19c-1.27-.22-2.6-.13-3.88.04,0,.11.35.14.44.14.19.02.38,0,.57.01-.21.76-.32,1.54-.15,2.33-1.16.02-2.34-.06-3.49.08-.03.08.24.15.27.15.54.06,1.19-.05,1.75,0-.12.64-.12,1.38,0,2.02l-7.68.39c-.03.08.26.15.27.15Z"/>
  <path class="cls-1" d="m24.09,80.43c1.34.06,2.58.3,3.95.08.12-.02.24,0,.27-.15-1.35-.12-2.7-.05-4.06-.09-.3-.19-1.26-2.24-1.41-2.23l-1.36,2.36c.86.1,1.74,0,2.6.04Z"/>
  <path class="cls-1" d="m21.81,84.97c-.16-.12-1.98.21-2.33.2.04.14.38.15.5.16.53.04,1.07,0,1.59-.08l.14,2.06s-.08.11-.1.11h-1.47c-.1,0-.4.16-.58.08v.08c.15-.07.36.08.43.08h2.99c-.17.17-.05,1.4.12,1.4.2,0,.15-1.21-.04-1.39,1.25-.05,2.51-.02,3.76-.08.34-.02.82-.05,1.16-.08.08,0,.29-.03.28-.15h-6.44c.07-.33.17-2.26,0-2.37Z"/>
  <path class="cls-1" d="m8.22,89.59l1.13.16c.65-.12,1.32-.08,1.98-.08.06.06-.1,1.47.31,1.63.14-.53-.04-1.1-.15-1.63h4.81c.02.06-.08.09-.08.12v1.59c.12.01.13-.2.15-.28.1-.54.05-1.12.16-1.66-2.77-.13-5.54-.05-8.3.16Z"/>
  <path class="cls-1" d="m19.01,89.36c.07-.65.1-1.29.08-1.94-.53-.14-1.02,0-1.51,0-1.87.02-4.05-.1-5.88.17-.07,0-.23.03-.21.14h3.34c-.02.48,0,.96.08,1.44.02.14-.04.13.15.12v-1.71l3.8.08v1.44s.07.3.15.27Z"/>
  <path class="cls-1" d="m27.57,82.6l.59-.14c-.19-.04-.38-.07-.58-.08-1.33-.08-3.01,0-4.35.08-.66.03-1.36.08-2.02.16-.12.01-.24.06-.11.16h1.78c-.29.49-.17,1.12,0,1.63.39-.18-.03-1.52.08-1.63,1.54.02,3.07-.11,4.61-.16Z"/>
  <path class="cls-1" d="m23.24,77.72c.18,0,.35-.09.54-.09.95,0,1.89.03,2.84-.07v1.98c0,.08.11.5.19.58.26-.83.03-1.71-.04-2.56.36-.02.76-.04,1.12-.09.08-.01.29-.03.28-.15h-2.48c-.02-.17-.1-.41-.31-.39v.39c-.98.06-2.01.04-2.98.16-.08.01-.36.03-.36.15.4-.08.84.09,1.2.08Z"/>
  <path class="cls-1" d="m22.47,84.94c-.08.01-.36.03-.36.15.99.04,1.96.14,2.95,0v1.13c0,.08.16.34.08.5.18.04.18-.07.21-.21.09-.43.01-.98-.06-1.42.98,0,1.98-.01,2.95-.19,0-.05-.49-.11-.58-.12-1.46-.09-3.75-.02-5.19.17Z"/>
  <path class="cls-1" d="m23.01,89.35c-1.16-.05-2.31-.02-3.42.15-.31.05-.67-.02-1,.01-.08,0-.29.03-.28.15l1.55.08c.04.14.12,1.75.47,1.39.12-.12-.15-1.23-.15-1.47l3.53-.08.58-.15c-.43.07-.87-.07-1.28-.08Z"/>
  <path class="cls-1" d="m13.31,82.76c-.25,0-2.84.01-2.84.19,1.23.23,2.49.08,3.73.04.04.51.06,1.09.16,1.59.02.11,0,.24.15.27v-1.59c0-.89-.61-.51-1.2-.5Z"/>
  <path class="cls-1" d="m11.26,88.84c.02.09.02.36.14.36v-1.63c-.74-.01-1.47-.1-2.21-.08-.67.01-1.58.07-2.25.16-.12.02-.47.03-.51.15h4.73c.01.33.03.71.09,1.04Z"/>
  <path class="cls-1" d="m17.98,77.7c1.02.15,2.16.11,3.2.17v1.94h.15c-.07-.23.06-.49.08-.66.04-.46,0-1,0-1.47,0,0-.11-.12-.12-.12h-3.53c-.02.1.14.13.21.14Z"/>
  <path class="cls-1" d="m14.35,80.35c.03-.08-.24-.15-.27-.15-.89-.1-2.16,0-3.1,0-.02,0-.14.07-.23.08-.18.02-.57-.12-.51.15,1.37.13,2.75.1,4.11-.08Z"/>
  <path class="cls-1" d="m83.48,84.03c0-.22-.26-.96.12-.96h1.55s.23-.08.19-.15c-1.16-.13-2.33-.07-3.49-.08.17-.77.08-1.58-.16-2.33.22,0,.43.01.65,0,.08,0,.36-.03.36-.14-1.31-.17-2.65-.25-3.96-.04l-1.35-2.29-1.29,2.24c-1.39.05-2.8-.06-4.18.13.22.14.63.18.89.2,1.96.12,4.05-.23,6.06-.19.31,0,.63.1.93.11.58.02,1.17-.02,1.75,0l.15,2.33h-1.9l-.5.15.62.08c.07.07-.28,1.63.04,1.86.26-.58.24-1.25.12-1.86l3.18.08c-.11.63-.13,1.31,0,1.94l-2.02.19c-.18.51-.15,1.06-.15,1.6.11-.05.12-.39.14-.52.05-.29.09-.59.09-.88,2.19-.21,4.4.03,6.6.16-.07.45-.04.88.08,1.32.29-.26.16-.98.08-1.32h2.75s.23-.08.19-.15l-7.68-.39c.06-.3.14-.76.15-1.06Z"/>
  <path class="cls-1" d="m84.38,87.41c-1.07-.01-2.15.02-3.22,0-.03.65.05,1.3.12,1.94.14,0,.15-1.49.19-1.71l3.72-.08v1.59s.08.23.15.19c.11-.43,0-1.04.08-1.44.02-.09.03-.16.13-.18h3.29s0,1.46,0,1.46c.11.02.12-.14.13-.21.05-.25.05-1.11.23-1.17,1.18.01,2.39-.09,3.56.07l1.05-.16c-1.69-.19-3.39-.3-5.08-.09-1.44-.18-2.91-.2-4.34-.22Z"/>
  <path class="cls-1" d="m80.35,85.32c.11,0,.41,0,.42-.16-.36.01-2.17-.32-2.33-.2-.2.14,0,2.01,0,2.37h-6.44c-.01.11.2.14.28.15,1.6.17,3.31.09,4.92.16-.12.42-.31,1-.04,1.4.16.03.18-.41.19-.5.02-.29.03-.63-.08-.89h3.06s.37-.08.35-.15l-2.1-.08.08-2.17c.55.08,1.12.12,1.67.08Z"/>
  <path class="cls-1" d="m83.72,89.43c.13.48.1,1.01.16,1.5.01.1.03.42.15.44v-1.71h4.73c-.14.54-.19,1.07-.15,1.63.44-.19.21-1.47.38-1.6l2.22.05.81-.16c-2.77-.22-5.53-.25-8.3-.16Z"/>
  <path class="cls-1" d="m72.36,77.48c.34.06.77.08,1.12.09-.08.77-.16,1.52-.08,2.29.01.12-.08.31.11.27.14-.05.25-2.24.12-2.56,1.55.08,3.11.19,4.66.08-.01-.11-.34-.13-.44-.15-.94-.12-1.91-.1-2.85-.16-.3-.93-.31-.05-.36,0-.09.09-2.23-.07-2.56,0-.01.12.2.13.28.15Z"/>
  <path class="cls-1" d="m79.03,82.61c-.68-.08-1.41-.12-2.09-.16-1.3-.07-2.91-.15-4.2-.08-.22.01-.43.07-.66.08l.59.14c1.56.06,3.12.2,4.68.17-.05.16-.27,1.63-.04,1.63.25,0,.24-1.41.12-1.63h1.71c0-.18.03-.14-.11-.16Z"/>
  <path class="cls-1" d="m74.95,85.09c-.04.56-.23,1.2.12,1.71.02-.1.1-.25.12-.35.05-.42-.04-.92,0-1.36.98.16,1.96.05,2.95,0,0-.11-.28-.14-.36-.15-1.47-.17-3.64-.26-5.12-.17-.22.01-.45.07-.66.12,0,.15,2.7.21,2.95.19Z"/>
  <path class="cls-1" d="m80.67,89.5c-.23-.02-.44-.14-.7-.15-1.3-.07-2.63.03-3.92.12,1.32.22,2.69.19,4.04.19.07.07-.29,1.35-.15,1.47.01.01.3.01.31,0,.05-.05.12-1.21.16-1.4.45-.04.9-.06,1.36-.08.09,0,.29.06.27-.08-.44-.13-.9-.04-1.35-.09Z"/>
  <path class="cls-1" d="m73.05,89.05c-.3.01-.72.04-1.01.07-.12.01-.24.02-.27.16l3.72.08-.08,1.36.16.73.23-2.41c-.91.03-1.84-.04-2.75,0Z"/>
  <path class="cls-1" d="m85.9,84.59c.13-.46.12-1.11.15-1.59.34.06,3.73.17,3.73-.04l-3.68-.27c-.26.02-.33.44-.35.66-.05.48.04,1.03,0,1.51.15-.03.13-.16.16-.27Z"/>
  <path class="cls-1" d="m79.03,79.89c.06-.67.15-1.34.12-2.02,1.02-.06,2.12-.02,3.12-.17.07-.01.23-.03.21-.14h-3.53c-.17,0-.13.87-.12,1.05,0,.17.11,1.28.2,1.28Z"/>
  <path class="cls-1" d="m90.01,80.43c.07-.27-.33-.13-.51-.15-.1-.01-.19-.08-.23-.08-.97-.07-2.11,0-3.1,0-.02,0-.3.07-.27.15,1.36.18,2.75.21,4.11.08Z"/>
  <path class="cls-1" d="m41.51,53.97c.27.51.79.76,1.16,1.2.27.33.54,1.07,1.01,1.01l-.77-1.16c0-.08,1.27-.47,1.32-.81-.36-.15-1.28.6-1.43.59-.17,0-1.12-.96-1.28-.83Z"/>
  <path class="cls-1" d="m40.19,55.22l1.94,1.98c.21.15.42.36.7.35-.85-.79-1.49-1.96-2.64-2.33Z"/>
  <path class="cls-1" d="m47.88,54c.01.08.03.29.15.28.16-.96.05-2.12-.25-3.04-.03-.1-.09-.36-.21-.37,0,.17-.01.34,0,.5.05.75.19,1.89.32,2.63Z"/>
  <path class="cls-1" d="m37.36,62.82c-.14.02-.13-.04-.12.15.94.1,1.88.07,2.82,0,.11,0,.59-.02.51-.22h-2.75s-.36.06-.47.08Z"/>
  <path class="cls-1" d="m45.2,54.83c.06.07.34.39.43.31-.55-.96-1.2-1.96-2.02-2.72.11.46.47.92.74,1.31.23.33.57.81.84,1.1Z"/>
  <path class="cls-1" d="m38.09,61c.96.18,1.98.09,2.95.11-.03-.15-.16-.13-.27-.16-.28-.08-.86-.13-1.17-.15-.63-.04-1.27.03-1.9,0,.04.15.25.17.38.2Z"/>
  <path class="cls-1" d="m46.38,54.27c.04.13-.04.21.17.17,0-.99-.37-2.17-1.16-2.79.15.48.42.91.6,1.38.16.41.24.84.39,1.25Z"/>
  <path class="cls-1" d="m58.74,53.97c-.13-.12-1.14.83-1.21.85-.12.02-1.18-.76-1.5-.61.05.33,1.31.71,1.32.81l-.77,1.28c.55-.23.75-.84,1.12-1.24.32-.35.86-.6,1.05-1.08Z"/>
  <path class="cls-1" d="m53.38,51.68c-.22-.06-.49-.15-.7-.04l.08-.78c-.2-.06-.21.19-.25.33-.31.9-.41,2.07-.29,3.01.19.01.13.02.15-.12.11-.78.15-1.58.24-2.37.06-.07.96.55,1.16.19.07-.14-.3-.21-.39-.23Z"/>
  <path class="cls-1" d="m57.42,57.54c.39,0,.63-.32.92-.51l1.79-1.81c-1.2.35-1.85,1.51-2.72,2.33Z"/>
  <path class="cls-1" d="m56.37,52.65c-.62.64-1.28,1.68-1.67,2.48.85-.74,1.47-1.73,2.02-2.71-.08-.08-.29.17-.35.23Z"/>
  <path class="cls-1" d="m62.35,60.96c.13-.03.23.08.19-.16h-1.98c-.22,0-.91.11-1.14.18-.08.02-.24.02-.22.13,1.03-.03,2.14.1,3.15-.15Z"/>
  <path class="cls-1" d="m53.69,54.17c0,.07-.01.45.15.27l1.01-2.79c-.65.51-1.12,1.71-1.16,2.52Z"/>
  <path class="cls-1" d="m50.78,15.95s-.23.08-.19.15c.35.06.77.15,1.12.16.09,0,1.3-.07,1.13-.24-.11.03-.21-.07-.27-.08-.5-.06-1.25,0-1.78,0Z"/>
  <path class="cls-1" d="m58.31,46.53c-.58-.11-1.49-.15-2.09-.16-.8-.02-1.58.02-2.37.08.1.27,1.06.14,1.16.23-.03.23-.09.42-.08.66,0,.41.25.67.31.15.03-.27,0-.54,0-.81h3.18c.02-.2.01-.13-.12-.15Z"/>
  <path class="cls-1" d="m52.04,32.08c-.15-.16-.32-.49-.39-.7-.11-.34-.07-.61-.09-.95-.03-.59-.42-1.09-.98-1.28-.03-.01-.19-.05-.2-.07-.01-.03.04-.09.05-.12.06-.14.03-.35-.07-.47-.34-.41-.98-.02-.8.45.01.03.06.11.06.13,0,0,0,.01,0,.02-.02.02-.13.04-.16.05-.58.19-.99.66-1.02,1.29-.02.44.03.7-.16,1.13-.06.14-.24.49-.37.57-.11.07-.3.04-.34.19-.02.07-.02.32-.01.4,0,.14.07.2.21.21h1.77c.08.01.07.12.08.18.09.42.68.41.77-.03.01-.06,0-.13.08-.15.6,0,1.21.01,1.82-.01.07-.02.12-.06.14-.13.02-.07.02-.33.01-.41-.02-.26-.26-.16-.4-.3Zm-2.03-3.51c.12,0,.21.1.21.21s-.1.21-.21.21-.21-.1-.21-.21.1-.21.21-.21Zm2.24,3.96h-4.47v-.11h4.47v.11Z"/>
  <path class="cls-1" d="m95.23,75.91c-.06-.08-.19-.97-.26-1.19-.25-.83-.63-1.73-1.17-2.4-.16-.2-.7-.64-.77-.78-.15-.34-.02-.74-.36-1.11-.13-.15-.33-.18-.38-.26-.11-.2-.18-.99-.29-1.32-.74-2.28-2.78-2.28-3.51.02-.1.3-.19,1.14-.28,1.28-.04.07-.33.22-.46.39-.15.21-.18.54-.28.66-.08.09-.43.22-.59.35-.56.47-.93.98-1.22,1.66l-.29.83c-1.25-9.24-6.09-17.95-13.81-23.24v-1.74h-1.87c-.04-5.77-4.58-10.29-9.62-12.37-.41-.17-1.06-.47-1.47-.55-.15-.03-.34.11-.43-.03l-.03-13.86c-.33-.39-.31-.98-.45-1.49-.41-1.5-1.25-2.65-2.49-3.56-.13-.1-.74-.4-.77-.43-.04-.06-.06-.37-.13-.53-.23-.52-.72-.43-1.05-.81-.91-1.07-1.36-3.39-2.38-4.06-.18-.12-.64-.21-.64-.25v-3.03h-.54v3.03s-.54.22-.74.39c-.98.84-1.26,2.94-2.25,3.96-.3.31-.88.35-1.02.77-.05.15,0,.36-.07.47-.04.07-.6.33-.73.43-1.44,1.03-2.29,2.34-2.69,4.07-.04.17-.09.9-.12.93-.04.03-.21-.04-.23.05l-.03,13.92c-.09.13-.32-.03-.53.02-.29.06-1.09.44-1.43.59-5.06,2.15-9.46,6.54-9.57,12.35h-1.86v1.74c-7.66,5.27-12.64,14.03-13.74,23.24-.12-.01-.12-.12-.15-.2-.32-.81-.43-1.36-1.1-2-.22-.22-.75-.49-.89-.66-.16-.21-.15-.55-.39-.78-.11-.11-.3-.13-.35-.21-.09-.15-.13-.77-.2-1.02-.24-.84-.73-1.92-1.71-2.02-1.14-.12-1.75,1.16-2,2.08-.07.27-.06.69-.13.88-.05.13-.53.36-.65.67-.06.18-.06.75-.08.78-.03.05-.59.5-.73.66-.74.87-1.24,2.17-1.46,3.28-.02.12,0,.47-.02.49-.03.02-.44-.02-.54,0v15.98h36.54c.05-4.18.03-8.36.08-12.54.03-2.67.13-5.39.16-8.06.05-4.52-.78-9.62,1.98-13.45,2.96-4.11,9.86-4.5,13.26-.78,3.31,3.62,2.55,8.02,2.59,12.54.08,7.33.26,14.68.23,22.03-.02.08.05.27.12.27h36.43v-15.98s-.4.06-.47-.05Zm-5.62-2.83c.99-.06,1.79.23,2.41,1.01.47.59.55,1.19.81,1.87h-5.43c.14-1.37.64-2.77,2.21-2.88Zm-30.84-36.54c.09-.09,2.23.85,2.48,1.05-.32.42-.73.89-.77,1.44.42-.31.77-.8.85-1.32.12-.11,1.27.62,1.46.74.25.15,1.59,1.02,1.56,1.23-.03.16-.92.95-.85,1.29.13.14,1.07-.99,1.01-1.24.06-.05,1.12.91,1.09,1.05-.15.06-1.1.97-1.01,1.05.52-.12.84-.6,1.21-.93.47.44.89.92,1.28,1.43,0,.06-.88.42-1.03.52-.14.09-.43.26-.44.45.53-.05,1.17-.46,1.51-.85.4.47.71,1,.97,1.55-.5.11-1.05.37-1.47.67-.12.09-.35.18-.32.35.35.09,1.84-.93,1.94-.85l.62,1.78c-.05.06-1.22.16-1.47.28-.13.05-.26.1-.23.27l1.86-.31.31,1.71h-1.67s-.3.09-.12.2c.59.11,1.2.11,1.79-.04l.08,1.01h-2.1c-.28-3.53-2.24-6.94-5.27-8.77.3-.39.67-.75.77-1.24-.13-.14-.92.88-.85,1.08-.06.06-1.22-.69-1.42-.79-.57-.28-1.21-.47-1.76-.8v-1.98Zm0,2.41c3.69,1.28,6.79,4.13,7.83,7.96.19.71.29,1.41.39,2.13h-8.22v-10.09Zm-2.01,9.32c.15-.18,1.37,0,1.66-.16l.04.93h-1.71c.03-.15-.05-.7.01-.77Zm-2.96-.24c0,.13.26.15.35.15.77.06,1.6.05,2.36.08-.06.28-.05.52.08.78h-3.03v-6.91c.53.12,1.08.16,1.63.16-.18.66-.16,1.33-.15,2.01-.37-.01-.76.01-1.13.08-.12.02-.13-.05-.11.15h3.03c.04.11-.08.23-.08.27v1.21c.2.05.19-.13.22-.28.08-.38.13-.82.01-1.19.34-.06.71-.04,1.04-.09.08-.01.36-.03.36-.15-1.02-.11-2.09-.13-3.11,0l.08-2.02c1.02.11,2.08.13,3.1,0v5.74h-4.65Zm-7.53-11.79v-11.8h3.24v3.02h.98v-3.02h3.24v11.8h-7.45Zm6.99,2.09v10.71h-6.52v-10.71h6.52Zm-6.99-16.22s-.17.06-.16-.11c.04-.38.59-1.2.85-1.49,1.36-1.42,4.29-1.5,5.78-.27.37.31,1.07,1.21,1.13,1.68.04.27-.16.17-.16.18v1.4h-7.45c-.04-.22.06-1.31,0-1.4Zm-.39-.54s-.11.54-.19.54h-1.12c.08-.74.55-1.26.93-1.86.33.1.54.39.93.31.08-.26-.73-.44-.7-.5.19-.16.66-.73.89-.74.04,0,.38.53.58.59-.51.38-.97.9-1.16,1.51-.98-.51-1.52.04-.16.16Zm8.57-1.32c.18.05,1.08,1.53.97,1.86-.19-.04-1.08.06-1.16,0-.02-.01-.13-.45-.15-.54.22.01.43-.04.63-.11.08-.02.29-.03.22-.17-.12-.23-.86-.07-.85.19h-.08c-.25-.61-.68-1.21-1.24-1.59.18-.06.58-.56.67-.58.14-.02.65.63.8.73-.25.13-.56.22-.7.5.29.19.82-.33.89-.31Zm2.14,7.84c-.86,0-1.72-.04-2.56.16v-1.55c.11-.05.23.08.28.08h2.21c-.16.43.04.88.08,1.32Zm.07-1.27l1.17-.2v1.56l-1.01-.08c.04-.44-.07-.85-.16-1.27Zm1.17,1.5v3.41h-1.4c.16-.51.21-1.02.08-1.55.36.01.7.01,1.05-.08.13-.03.23.08.19-.15-.81-.06-1.6-.06-2.41,0,.14-.43.11-.96,0-1.39-.4.16-.11,1.35-.16,1.39l-.85.12c.09.13.22.11.35.12.57.04,1.11.05,1.67,0-.12.51-.07,1.04-.08,1.55h-1.36s-.36.06-.47.08c-.13.02-.13-.04-.12.15l.78.08c-.12.4-.06.76,0,1.16.16.02.13.02.18-.09.13-.3.02-.74.06-1.07.83.01,1.68,0,2.48-.23v1.55h-3.72c0,.13.25.15.35.16.6.05,1.22.08,1.83.08-.02.41-.29.84-.08,1.24l-2.02.15c-.13.1,0,.14.11.16.15.02.79-.03.82,0l.08.93h-1.16v-7.68l3.8-.08Zm-.19,6.52h-1.28c.05-.42.2-.81.16-1.24l1.32-.08v1.4c-.08.03-.17-.08-.19-.08Zm.19.15v1.09h-2.41l-.08-.93c.83.04,1.66-.05,2.48-.16Zm-1.46,7.05l.11-1.25h1.28c.06,0,.41-.06.54-.08.06,0,.12-.02.15-.05v1.54c-.69-.09-1.38-.14-2.08-.17Zm2.08-5.57v1.94c-.64-.19-1.32-.15-1.98-.16-.15,0-.29-.08-.46-.08-.69.01-1.48.35-2.22.28.5.3,1.09.19,1.63.12.02.52-.07,1.05.08,1.55.41-.18.1-1.57.16-1.63.94.05,1.86.08,2.79,0v2.11s-.01-.02-.03-.04c-.28.07-.6-.06-.81-.08-1.2-.08-2.48.06-3.69,0,.03.16.16.13.27.15.64.12,1.4.11,2.06.16-.06.4-.19.9.07,1.24-.92-.04-1.84-.03-2.76.02v-5.59h4.89Zm-.62-14.05v1.01c-1.07-.13-2.26-.12-3.34,0-.04.08.18.15.19.15h1.2c-.04.41.05.78.16,1.16h-1.28s-.34.08-.27.23l2.44.16.82-.09c.02-.11-.14-.11-.22-.13-.4-.12-.78-.08-1.19-.13l-.3-1.21h1.59s.11-.11.19-.08v2.95l-3.8.15v-4.19h3.8Zm-7.6-11.01c1.04.28,1.23,1.39,1.64,2.2.26.52.97,1.95,1.38,2.26.35.26.69.09.81.67.02.13-.04.31,0,.37.12.19.54.04.28.43-.25.38-1.02.52-1.17,1.04.63-.19,1.21-.52,1.44-1.16,1.79.93,2.87,2.91,2.98,4.89h-2.1c.05-.47-.09-.91-.31-1.32.59-.06,1.27-.28,1.63-.77-.62.07-1.15.44-1.74.63-1.09-1.48-2.73-2.97-4.71-2.88l.54.16c-.06.14-.42,1.09-.12,1.08.23,0,.26-1.01.31-1.01.28-.05,2.32,1.09,2.21,1.24-.25-.04-.61.43-.75.45-.16.04-.56-.35-.8-.3.19-.25.43-.5.39-.85-.29-.06-.51.68-.59.7-.3.06-.97-.28-1.35-.16v-6.51c.52.32.32,1.02.39,1.5.09.59,1.1,1.34,1.7,1.36-.35-.37-1.22-.79-1.38-1.3-.02-.08-.08-.59-.06-.64.09-.2.61-.23.59-.54-.19-.09-.47.17-.57.15-.09-.02-.22-.35-.32-.47-.09-.1-.35-.23-.36-.28-.06-.25.05-.68,0-.95Zm-4.73,5.74c-.07.75.83.97,1.32,1.32.13-.46-1.46-1.09-1.24-1.39.51-.05.33-.32.4-.64.1-.42.44-.35.73-.52.48-.32,1.22-1.89,1.5-2.46.39-.77.59-1.88,1.64-2.04-.04.25.06.66-.01.88-.05.16-.72.43-.61.83l-.7-.15c.26.59.78.16.59,1.01-.16.7-.97.94-1.36,1.47.49-.08,1.26-.59,1.51-1.01.36-.6-.09-1.49.59-1.94v6.6c-.37-.13-1.14.23-1.43.16-.04-.01-.28-.77-.59-.7-.05.35.23.58.39.85-.23-.04-.61.32-.74.32-.15,0-.54-.52-.81-.47.61-.59,1.39-.99,2.21-1.24.06.25.09.5.19.75.05.13.05.3.24.26.04-.4-.02-.74-.23-1.08l.54-.16c-1.98-.09-3.58,1.4-4.7,2.86-.25-.05-1.55-.71-1.66-.61-.02.2.18.27.31.35.34.22.84.4,1.25.43-.16.43-.35.84-.31,1.32h-2.1c.14-2.03,1.27-4.01,3.1-4.96Zm-3.34,6.36c.08-.03.17.08.19.08h1.59c-.12.39-.19.75-.16,1.16-.44.12-.88.06-1.33.19-.08.02-.23.02-.22.13.44.13.81.02,1.21,0,.59-.02,1.37.01,1.93-.08.09-.01.19-.05.2-.15-.1.04-.23-.08-.27-.08h-1.36l.22-1.12c.35-.09.7,0,1.05-.05.08,0,.29-.04.28-.15l-1.83-.16c-.49.16-1.03,0-1.51.16v-1.01h3.8v4.19l-3.8-.15v-2.95Zm1.32,3.26h2.21s.16-.12.27-.08v1.55c-.83-.22-1.7-.14-2.56-.16.06-.43.27-.9.08-1.32Zm-1.32-.23c.19.18,1.14.12,1.17.28l-.16,1.27-1.01.08v-1.63Zm0,1.78l3.8.08v7.68h-1.16c.11-.13.12-.9.15-.93.03-.03.6.02.74,0,.11-.02.24-.05.12-.16l-1.94-.15c.04-.43-.05-.84-.15-1.24.73,0,1.46-.04,2.17-.16-.01-.11-.35-.13-.43-.15-.19-.02-.39,0-.57,0,.08-.42.13-.83,0-1.24l.77-.08c.02-.2.01-.13-.12-.15-.09-.01-.36-.08-.39-.08h-1.43c.06-.52.05-1.04-.08-1.55h2.01c.04-.23-.06-.12-.19-.16-.22-.05-.44-.09-.66-.08.03-.22.08-.42.08-.66,0-.17-.08-.98-.26-.56-.14.32-.06.88.02,1.22-.81-.1-1.6-.05-2.41,0-.02.2-.01.13.12.15.39.07.8.09,1.2.08-.14.48-.11,1.07,0,1.55h-1.39v-3.41Zm0,3.49c.83.23,1.71.23,2.56.23-.15.39-.11.86.08,1.24h-2.37s-.16.12-.27.08v-1.55Zm0,1.7l1.32.08.16,1.24h-1.28s-.14.13-.12.15c.83.11,1.65.19,2.48.16-.09.3-.23.64-.08.93h-2.48v-2.56Zm-.62,4.97h2.79v1.51s.11.16.16.08c.18-.47.12-1.01.08-1.52.51.04.97.19,1.47-.04.12-.05.19.01.15-.19-.75.26-1.53-.16-2.29-.16-.16,0-.32.08-.47.08-.63.02-1.28-.03-1.9.16v-1.94h4.89v5.59c-.8-.06-1.6-.07-2.41-.04.14-.42.09-.78-.03-1.22.66-.05,1.41-.03,2.06-.16.11-.02.24,0,.27-.15h-3.76l-.74.19c.2-.02.6.12.74.12h1.2c.05.35,0,.91.18,1.22-.8.03-1.61.09-2.4.19v-3.72Zm0,3.8c1.03.12,2.07.09,3.1,0l.08,2.02c-.79-.09-1.79-.14-2.59-.06-.09,0-.43.04-.44.14l1.32.16v1.21s.07.34.23.27c.15-.51.04-.97-.08-1.47h2.99s.12-.11.11-.15l-1.32-.08c.02-.67,0-1.35-.08-2.01.51,0,1.05-.04,1.55-.16v4.32c-.82-.05-1.65-.1-2.48-.08-.58.02-1.45.06-2.01.16-.13.02-.13-.05-.12.15h3.18c-.03.12.03,1.09.12,1.09.34,0,.18-.87.12-1.09.32-.07.65-.05.96-.08.05,0,.17-.02.23-.07v2.5h-2.95c.03-.28.16-.51,0-.77.77-.05,1.61-.02,2.37-.08.09,0,.35-.02.35-.15-1.51-.13-3.07-.13-4.58,0-.04.08.18.15.19.15h1.43v.85h-1.7v-6.75Zm-8.66.15c.42.4,1.01.81,1.59.85-.37-.52-1.01-.7-1.55-.97l1.28-1.43c.11.14,1.07,1.06,1.2.93-.13-.49-.63-.77-1.01-1.05,0-.22.87-.87,1.05-1.05.3.45.5,1.02,1.05,1.24-.07-.51-.6-.9-.84-1.36,0-.2,2.59-1.81,2.98-1.98.19.51.42,1.07.89,1.4-.02-.58-.47-1.02-.78-1.47l2.49-1.01v1.98l-3.07,1.59c-.08,0-.6-1.13-.97-1.08-.11.12.66,1.08.78,1.24-1.77,1.08-3.26,2.76-4.11,4.65-.62-.33-1.19-.74-1.87-.98-.05-.28.73-1.22.9-1.5Zm8.35-3.49v10.09h-8.15c.22-4.73,3.78-8.61,8.15-10.09Zm-10.55,9.08s.1.08.11.08h1.71c.16,0,.12-.23-.08-.23h-1.74l.38-1.67,1.79.28c.02-.21-.25-.29-.4-.33-.4-.12-.89-.11-1.31-.2-.06-.07.59-1.68.7-1.75.11-.08.12,0,.2.04.52.22,1.04.75,1.67.78-.4,1.32-1,2.62-.93,4.03h-2.18l.08-1.01Zm-15.44,24.13c.68.33,1.67.42,2.41.31-.06-.15-.39-.18-.53-.21-.43-.09-1.32-.23-1.72-.13-.1.02-.09.09-.08-.08.01-.5.28-1.08.32-1.59.65.05,1.33.12,1.98.08.13,0,.26.01.35-.12-.73-.22-1.5-.18-2.25-.16.06-.25.36-1.71.5-1.74.23.08.42.21.66.27.18.05,1.56.35,1.55.08,0-.15-1.91-.43-2.17-.5.53-2,1.39-3.87,2.25-5.74l1.04.71.83.29c.03-.17-.24-.28-.36-.37-.43-.3-.91-.53-1.33-.84.08-.23.87-1.66.96-1.66.4.4.94.83,1.52.93.13-.12-.66-.63-.75-.68-.19-.12-.42-.19-.62-.3-.06-.04-.13.02-.09-.13,1.02-1.59,2.11-3.14,3.37-4.55.22.37.52.75.97.85l-.19-.39-.65-.57c.81-.97,1.72-1.89,2.7-2.69.07.51.47,1.04.94,1.24.08-.09-.74-1.19-.85-1.36.78-.68,1.62-1.31,2.48-1.9-.12.61.15,1.65-.02,2.19-.04.14-.28.29-.37.21-.04-.03-.2-.66-.33-.88-.07-.12-.34-.66-.53-.52-.07.05.64,1.42.77,1.58l-2.05,1.98-1.43-1.16c-.02.23.17.42.31.58l1.01.77-2.32,2.72c-.15.07-1.38-1.04-1.56-.9.27.56.88.84,1.4,1.12l-.85,1.25-1.79-.98c-.03.15.08.18.16.27.38.46.92.74,1.47.93-2.6,4.08-4.31,8.77-4.66,13.62-.76-.03-1.53-.11-2.28,0-.3.04-.18.23,0,.23h2.1s.11-.11.19-.08l-.08,1.79h-2.79l.46-3.8Zm13.19,3.8h-10.55c.04-8.52,4.2-16.63,10.55-22.12v22.12Zm-18.59-2.88c1.92-.15,2.63,1.15,2.76,2.88h-5.35c.22-1.41,1.06-2.76,2.59-2.88Zm-5.23,18.48v-1.94c.43.01.84.09,1.28.08.2,0,1.36-.22,1.36.04v1.32s.09.35.11.35c.02-.08.12-.32.12-.35v-1.74l-2.87.16v-1.79l1.32.08.23,1.47c.1.02.12-.15.13-.22.04-.23-.04-1.4-.19-1.5-.25-.18-1.17.02-1.5.08v-2.25l3.8.23.08,1.63c.27-.17.14-.67.15-.97.02-.26.18-.56,0-.84-.13-.22-1.71-.12-2.07-.13-.18,0-.36-.09-.54-.09-.42,0-.97.17-1.43.09v-2.49l5.04.16.08,1.94c.09.13.14,0,.15-.11.05-.33-.01-.75,0-1.09,0-.29.27-.97-.12-1.04l-5.16.08v-6.36h9.7c-.16.38-.21.77-.08,1.16-2.9.04-5.81-.09-8.69.08l.58.16h2.45c.02.09-.01.15-.04.23-.08.19-1.02,1.85-1.12,1.9-.08.04-.51-.11-.67-.11-.26-.02-1.87.12-1.98.23-.28.26.33.08.35.08h1.86c.19,0,.02,1.14.04,1.36,0,.12.12.93.16.97.01,0,.16.03.16-.04-.18-.67.05-1.45.08-2.14h2.64c-.11-.37-1.44-2.32-1.32-2.48.06-.02.09.08.11.08h2.37c-.29.6-.14,1.33.04,1.94.18.06.11-.17.12-.27.03-.56-.04-1.11-.08-1.67h4.42l-1.28,2.18-.05.23h1.16c-.05.3.06,2.18.28,2.25.18.06.11-.17.11-.27.04-.64-.13-1.35-.23-1.98h1.39l-1.32-2.48h1.4c-.04-.12-.4-.15-.51-.16-.75-.06-1.53.05-2.29-.08.13-.35.13-.81,0-1.16h4.35c-.04.14-.08.83.04.85.3.06.22-.38.2-.59,0-.11-.04-.18-.08-.27h9.55v12.82l-3.99-.12.23,2.4c.08.03.15-.24.15-.27.05-.48,0-1.13,0-1.63,0-.02-.11-.11-.08-.19,1.16.04,2.3-.04,3.45-.08.06,0,.16.02.22,0v2.28H4.61Zm24.21,0v-1.87l3.73.08c-.16.56-.11,1.26.15,1.78h-3.88Zm20.95-37.36c0,.19-.86.1-1.05.12-2.63.25-5.09,1.77-6.33,4.11-1.11-.63-2.16-1.42-3.41-1.78.93.8,2.14,1.36,3.26,1.87l-.58,1.16c-.35-.29-.82-.46-1.24-.62-.25-.09-2.05-.7-2.14-.62-.14.13.11.16.15.19.91.54,2.19.74,3.18,1.13-.5,1.46-.95,2.93-.85,4.5h-3.96c.34-4.44,2-9.18,5.67-11.9,2.08-1.55,4.7-2.37,7.29-2.45v4.31Zm-3.04-4.21c-2.02.51-4.01,1.59-5.53,3-.17.16-.85.98-.94.99-.16.04-.65-.13-.88-.06.12-.61.08-1.24.08-1.86-.87.02-1.74-.03-2.6,0-.23,0-.7.17-.87.06-.05-.04-.05-.23-.22-.28-.54-.17-1.69.09-2.28.14-.04.08.18.15.19.15h1.98l.08,1.55c.18.01.14.03.16-.11.05-.43.05-.92.08-1.36,1.08.18,2.17.16,3.26.15v1.36s.11.11.08.19c-.54.04-1.14-.05-1.67,0-.21.02-.38.04-.47.24-1.54-.16-3.14.09-4.69.15v1.78c.12,0,.13-.27.15-.36.06-.37.09-.81.09-1.19l4.42-.31c-.02.57,0,1.14.08,1.71-.83.08-1.7.01-2.52.08-.19.02-.64.08-.74.23h4.23c.11,0,.4-.16.58-.08,0-.05-.1-.16-.11-.16h-1.28l.08-1.78,2.72-.15-1.49,2.28c-.15.31-.32.61-.47.93-.12.27-.47,1.33-.57,1.45-.13.17-.54,0-.77,0-.12,0-.24,0-.38,0,.08-.59.15-1.36,0-1.92-.03-.11,0-.24-.16-.27-.12.64-.11,1.33,0,1.98.01.08.01.16.06.21-.37,0-.75.03-1.07.08-.09.02-.18.05-.2.15.11-.04.23.08.28.08h2.01s.16-.19.12.04c-.12.61-.42,1.33-.57,1.99-.25,1.14-.39,2.31-.44,3.48h4.27l-.08,7.22c-1.7-.24-3.42.04-5.12.08v-1.59c-.19-.28.1-.8-.35-.89-.44-.08-1.59-.02-2.1,0-.35.01-.73.05-1.09.07-.13.01-.26,0-.35.12l3.48.13.32,2.05c.02.06-.08.19-.11.19h-2.06c.12.19.6.22.81.23.81.06,1.73,0,2.52-.08.02.42-.03.86,0,1.28,0,.09.02.53.19.51.25-.57.06-1.21-.04-1.79l3.88-.23v2.41c-.11.05-.23-.08-.28-.08h-1.86s-.15.11-.08.15c.7.2,1.49.21,2.21,0-.02,1.15.02,2.31,0,3.46-.04,2.67-.06,5.39-.16,8.06-.02.55.02,1.11,0,1.67l-2.48-.08.08,1.55c.28-.11.13-1.13.23-1.24l2.17-.08v3.88h-7.75c.01-.6,0-1.19-.08-1.78,1.71-.09,3.45-.01,5.16-.08.45-.02,1.01-.05,1.46-.09.19-.01.65-.06.75-.22l-11.25.23v-2.02c.64.12,1.35.12,2.02.16-.15.43-.07.89.04,1.32.14-.09.09-.22.12-.35.06-.33.13-.84.15-1.16.01-.16,0-.1-.11-.12-.65-.09-1.56.03-2.22.08v-2.25l4.04.15c0,.17-.26,1.86-.12,1.86.1-.14.13-.36.17-.53.05-.25.35-1.59.13-1.65l-4.22.08v-8.53c.72.15,1.48.06,2.22.08.52,0,1.03.16,1.59,0,.06.45.04,1,.16,1.43.02.11,0,.25.15.28v-1.74s-.11-.12-.08-.2h-3.85s-.11.11-.19.08l-.08-2.18h2.17v1.44c0,.1.16.39.08.58.1.02.12-.15.13-.21.09-.61.1-1.27.09-1.88l3.26.16v1.28c0,.06.13.29.19.35.29-.5-.01-1.09.04-1.63h3.21s.13.17.13.19v1.43l.16-.12c-.08-.23.16-1.7-.05-1.75-.14-.03-.59-.06-.76-.08-1.45-.09-2.95.02-4.41.02.02-.49.24-1.41.14-1.77-.02-.06-.15-.21-.18-.21h-1.51c-.12-.38,0-2.25-.15-2.37-.28-.21-1.74-.11-2.13-.03-.13.02-.13-.05-.12.15l2.02.08c0,.73.03,1.49.31,2.17l-2.21.08-.11.15,3.8.08v1.2l.12.46c-.7,0-1.39-.02-2.06-.1l-2.14.16v-7.06l2.48.08c.1.45.04.92.16,1.36.03.13-.08.22.15.19v-1.67c0-.1-.24-.19-.35-.2-.77-.11-1.66.18-2.45.08v-4.5h3.65l.16,1.63s.15-.1.15-.12v-1.63c0-.39-1.95-.05-2.25-.12l.08-1.16,3.03-.15.23,1.16c.22-.06.08-.15.08-.19v-1.13c.98.11,1.97.09,2.95,0-.11-.26-.45-.12-.66-.15-.1-.01-.21-.08-.23-.08h-1.2v-1.78c-.74-.22-1.5.02-2.25,0-.13.1,0,.14.11.15.6.08,1.21.08,1.81.09.17.49.04,1.04.16,1.54-.29-.04-.53-.14-.82,0-.24.11-.16.32-.23.32-.11.01-.36-.08-.54-.08-.87-.03-1.83-.04-2.68.08v1.12s.12.16.08.27l-1.63.08v-3.41l3.26.08c-.14.5-.2,1.07.04,1.56-.05-.29.31-1.68.15-1.8-.37-.26-2.84.06-3.45.01v-2.41l4.27.15.16,2.02.15-.74c.06-.54-.12-1.07,0-1.59h-4.58v-1.94c.32.16,3.73.06,3.73-.2l-3.73.04.08-2.17,4.04.15c-.04.56-.1,1.11-.08,1.67,0,.09-.06.29.08.27,0-.38.41-1.9.24-2.13-.05-.07-1-.13-1.17-.12-.05-.11.08-.23.08-.27v-1.43l5.35-.16-.66-.16c-2.55.02-5.11-.05-7.65.08-.12.09,0,.14.12.15.77.1,1.8-.01,2.6.08-.14.56-.11,1.16.08,1.7h-3.03c.12-.45-.24-2.12-.04-2.41.08-.12,1.02-.08,1.25-.08,5.56.18,11.41.09,16.99,0,.75-.01,1.85-.08,2.56,0,.12.01.24.01.27.15-1.05.13-2.09.23-3.12.49Zm12.16,11.23c-.14-.5-.36-.98-.5-1.47.75-.25,1.53-.44,2.27-.72.34-.13.82-.27,1.07-.52-1.16.15-2.39.58-3.41,1.16l-.54-1.16c.77-.26,1.59-.73,2.3-1.15.26-.15.57-.34.81-.51.09-.06.19,0,.14-.2-.15-.13-2.97,1.48-3.29,1.77-1.19-1.83-2.74-3.19-4.89-3.79-.33-.09-1.1-.3-1.4-.3h-1.2v-4.42c2.43.08,4.9.81,6.93,2.19,3.54,2.41,5.35,6.68,5.89,10.87-.1-.13-.49-.19-.63-.2-.87-.08-1.87.06-2.75,0-.07.2.32.21.44.22.98.09,1.97.11,2.95.01.05.42.11.85.14,1.26h-3.96v-1.52c0-.28-.26-1.19-.35-1.51Zm1.01-7.14l2.68.15.08,1.78c-.4.02-.81-.02-1.21,0-.05,0-.16.13-.26.07l-1.29-2.01Zm11.37,37.48h-3.88c-.02-.16.15-.47.15-.59v-1.2l3.73-.08v1.87Zm0-14.98c-.11.04-.23-.08-.28-.08h-3.72c-.06,0-.19.45-.19.51v1.24s.08.23.15.19l.16-1.71,3.88.04v8.42l-4.16-.08c-.06,0-.12.02-.16.07-.12.18.1,1.29.16,1.56.03.14.07.47.19.54.03-.62-.04-1.25-.15-1.86l4.11-.15v2.25c-.23-.05-2.41-.16-2.41-.04l.24,1.59c.13,0,.15-.26.15-.35.02-.3.03-.69-.08-.97l2.1-.08v1.94l-11.33-.23.74.22c2.24.11,4.47.13,6.71.17-.16.56-.25,1.22-.08,1.78h-7.75c.02-.08-.08-.17-.08-.2v-3.68l2.12.09c.26.08.03.96.2,1.23.08.02.16-.33.16-.35v-1.2l-2.49.08-.15-13.19c.75.23,1.59.22,2.33-.04,0-.19-2.08-.13-2.33-.04v-2.41l3.88.23c-.08.19-.18,1.75-.04,1.79.17.04.18-.26.19-.35.07-.49.03-.95,0-1.43,1.09.16,2.24.08,3.34,0,0-.05-.1-.16-.12-.16h-2.05l.31-2.25,3.49-.12c-.09-.13-.21-.11-.35-.12-.47-.03-3.08-.16-3.3-.04-.11.06-.15.27-.16.39-.08.67-.07,1.39-.08,2.06-1.7-.04-3.42-.32-5.12-.08l-.08-7.22h4.27c-.04-1.88-.39-3.75-1.01-5.51h2.21s.3-.07.28-.15c-.84-.2-1.7-.18-2.55-.09l-1.18-2.63,4.89.08-.66-.23h-2.56c-.18,0-.04-.39-.04-.5.01-.43-.01-.86,0-1.29l4.42.31c.05.19.1,1.56.2,1.56.15-.6.06-1.18.04-1.78l-6.75-.39v-1.55l3.21-.08c.25.06-.04,1.29.28,1.4-.06-.15.08-.36.08-.43v-1.13h2.05s.12-.11.12-.15c-.11-.11-2.05-.21-2.28-.14-.17.05-.17.25-.22.28-.19.11-.71-.06-.95-.06-.42-.02-2.14-.08-2.39.01-.31.1-.02,1.52-.05,1.85-.23-.08-.73.11-.88.07-.08-.02-.91-.98-1.1-1.16-1.91-1.74-4.43-2.79-6.99-3.17-.43-.06-.9-.04-1.31-.09-.14-.02-.12.02-.11-.16h21.03v2.29s-.11.12-.12.12h-2.91c.11-.56.08-1.14.08-1.7l2.72-.08-.13-.13c-2.5-.17-5.01-.06-7.51-.1l-.73.16,5.43.16s-.08.1-.08.12v1.16c0,.06.17.42.15.43-.3.03-1.21-.04-1.28.3-.04.19.16,1.22.22,1.5.04.18.03.4.17.53.06-.56-.08-1.2-.11-1.76,0-.09-.02-.17.06-.23l4.04-.19v2.17l-3.65-.08c.03.15.16.13.27.16.28.08.8.13,1.09.15.74.05,1.56,0,2.29-.08v1.94h-4.5v2.33c.11.01.14-.2.15-.28.06-.57.08-1.16.08-1.74,1.43.01,2.86.03,4.27-.15v2.41c-.99.04-2.17-.22-3.15-.08-.6.08-.24.66-.2,1.06.01.13-.02.88.05.88.28-.52.16-1.08.12-1.63l3.18-.08v3.41l-1.63-.08c.08-.23.18-1.27.06-1.38-.16-.15-2.27-.12-2.66-.1-.17,0-.4.11-.53.09-.07-.01-.04-.19-.12-.28-.26-.28-.9.17-.9-.2,0-.44.14-.94.12-1.39.61.01,1.22.01,1.82-.08.13-.02.13.04.12-.15-.33.05-2.25-.29-2.25.11v1.67c-.6,0-1.22.02-1.82.09-.08,0-.29.04-.28.15.96.11,1.93.1,2.9.01.09.03.12.07.11.16-.02.36-.12.76-.06,1.15.12.01.12-.19.15-.28.08-.28.13-.59.16-.88,1,.15,2.01.18,3.03.15l.08,1.16c-.39.12-1.98-.26-2.18.05-.16.26-.01,1.46,0,1.81.11,0,.13-.35.15-.43.04-.39.04-.8.08-1.19h3.65v2.23c-2.46-.19-4.95-.28-7.4-.11,0,.21,2.88.18,3.15.19,1.1.03,2.22.14,3.34.08l.92-.15v2.34c-.7-.04-1.61-.22-2.29-.16-.11.01-.5.07-.5.2h0c-.11-.03-.25-.04-.31-.05-.75-.11-1.71-.14-2.47-.17-1.12-.04-2.26.03-3.38,0,.24-.59.42-1.3.23-1.94-.17.06-.18.3-.21.45-.1.48-.08,1.01-.18,1.49h-1.66s-.89.16-.89.16l8.87.15v1.46s.13.14.16.12l.15-1.55c.83-.03,1.67.08,2.49-.08v5.2c-.05-.07-.13-.09-.22-.1-.18-.02-2.05-.01-2.06-.11.2-.68.24-1.36.27-2.06.08-.11,1.58-.11,1.87-.15.14-.02.13.02.11-.16-.5-.03-1.01-.12-1.52-.08-.24.02-.76.02-.81.27-.07.36.09,2.05-.08,2.21h-1.51s-.14.12-.15.16c-.12.26.11,1.34.12,1.82-1.5,0-3.03-.12-4.52-.02-.17.01-.97.09-.97.2v1.55s.07.3.15.27l.08-1.7h3.34c-.08.43-.18,1.09-.08,1.51.02.09.02.26.15.12.12-.13.16-1.38.08-1.63l3.26-.16.16,2.1c.08.03.15-.26.15-.27v-1.75h2.18v2.18Zm-2.06-2.49c-.6.08-1.21.1-1.82.11.03-.07.05-.15.05-.16v-1.51l3.83-.08v1.81l-2.06-.16Zm2.37-22.88c.87.57,1.7,1.19,2.46,1.9l-.84,1.36c.2.2,1.05-.98.93-1.24.13-.13,2.48,2.42,2.7,2.62.08.2-.35.33-.53.52-.06.06-.37.45-.31.51.46-.06.8-.47.97-.85,1.27,1.43,2.47,2.98,3.38,4.66-.56.19-1.12.53-1.47,1.01.63-.11,1.13-.57,1.63-.93l.85,1.66c-.04.19-1.58.84-1.7,1.21.31.04.56-.18.83-.29l1.04-.71c.91,1.84,1.67,3.75,2.32,5.71l-2.25.54c.66.3,1.57-.08,2.21-.35.12.03.57,1.71.51,1.79-.59-.08-1.16-.07-1.74,0-.13.01-.5.02-.43.23.75-.01,1.5.05,2.24-.07l.39,1.67c-.69-.02-1.52,0-2.18.21-.08.03-.24.02-.22.13.78.16,1.63-.06,2.4-.23l.47,3.73h-2.79v-1.59s-.15-.06,0-.16c.05-.09.09.04.12.04.64,0,1.49.07,2.1,0,.03,0,.3-.07.27-.15-.85-.2-1.7-.12-2.56-.08-.32-4.85-2.04-9.56-4.65-13.62.25.01,1.87-.94,1.63-1.2l-1.68,1-.11-.03-.85-1.28c.42-.14.95-.47,1.24-.81.07-.09.19-.13.15-.28-.13-.12-1.28.84-1.5.92l-2.38-2.83c.52-.22,1.16-.64,1.32-1.2-.16-.16-1.18.98-1.32,1.05-.09.05-.13.04-.19-.04l-1.97-1.91c.32-.52.68-1.05.77-1.66-.47.33-.74,1.01-.85,1.55-.08-.06-.37-.23-.39-.29-.13-.56.12-1.57,0-2.19Zm10.55,24.76h-10.55v-22.12c6.36,5.47,10.55,13.61,10.55,22.12Zm13.27,6.75l-5.28-.08v2.05s.08.3.16.28l.08-2.02,5.04-.16v2.49h-3.84s-.12.1-.2.08v1.67s.08.23.16.19l.08-1.63,3.8-.23v2.25c-.25-.06-1.42-.25-1.54-.06-.06.09-.13,1.09-.12,1.27,0,.09-.01.43.11.43l.3-1.44,1.25-.11v1.86l-2.87-.23v1.21l.16.89.15-1.79c.87.02,1.7.16,2.56,0v1.94h-23.82v-15.21h9.54c-.1.32-.11.61,0,.93.34-.2.23-.63.15-.93h4.34c-.15.36-.09.79,0,1.16-.75.15-1.53.02-2.29.08-.1.01-.47.04-.5.16h1.28s.15.12.11.18l-1.32,2.3h1.4c-.06.74-.32,1.52-.15,2.25.11.08.31-.81.31-.89v-1.36h1.24l-1.32-2.41h4.35c.06.23-.25,1.93.04,1.94.18,0,.33-1.74.04-1.94h2.56l-1.39,2.41h2.64l.23,2.25c.16-.61.18-1.19.16-1.82,0-.17-.22-.59.12-.59h1.7s.71.19.43-.08c-.05-.05-1.34-.23-1.51-.23-.24,0-1.08.15-1.13.12-.12-.06-1.05-1.85-1.16-2.13h2.52l.5-.16c-2.89-.16-5.79-.04-8.69-.08.15-.37.1-.81-.08-1.16h9.7v6.36Z"/>
</svg>